<?xml version="1.0" encoding="UTF-8"?>
<svg enable-background="new 0 0 542 157" version="1.1" viewBox="0 0 410.86 139.67" xml:space="preserve" xmlns="http://www.w3.org/2000/svg"><style>.st0{filter:url(#b);} .st1{fill:#FFFFFF;} .st2{mask:url(#a);fill:#FFFFFF;}</style><g transform="translate(-77.114 -12.175)" fill="#fff"><g fill="#fff"><g transform="translate(14.683 -18.514)"><defs><filter id="b" x="0" y=".3" width="299.2" height="156.7" filterUnits="userSpaceOnUse"><feColorMatrix values="1 0 0 0 0 0 1 0 0 0 0 0 1 0 0 0 0 0 1 0"/></filter></defs><mask id="a" x="0" y=".3" width="299.2" height="156.7" maskUnits="userSpaceOnUse"><g class="st0"><path class="st1" d="m299.2 156.9h-299.1v-156.6h299.1z"/></g></mask><path class="st2" transform="matrix(.65237 -.18712 .18712 .65237 334.39 67.696)" d="m135.2 5.2c-21.2-8.3-97.9-11.3-98 34.5-22.4 14.3-37.2 37.6-37.2 62.6 0 30.2 24.5 54.7 54.7 54.7s54.7-24.5 54.7-54.7c0-23.3-14.6-43.3-35.2-51.1-4-1.5-12.6-4.2-19.4-3.6-9.8 6.2-21.8 19-27.4 31.8 8.4-10.1 21.5-14.5 33.2-12.6 17.1 2.8 30.837 20.052 30.2 35.6-0.69461 16.956-16.1 36-36 36-11 0-20.8-4.9-27.4-12.6-9.9-11.5-12.4-23.9-10.4-36 6.9-42.4 57.2-66.5 94.6-75.8-12.2 6.5-34.2 17.1-49.6 28.6 44.9 17.4 52.2-20.5 73.2-37.4z" fill="#fff" mask="url(#a)"/><path d="m95.061 169c0-1.9316 2.1057-7.9672 3.192-9.1492 0.56505-0.61485 0.68369 0.34802 0.30804 2.5-0.33603 1.925-1.0008 3.8923-1.4773 4.3719s-0.62839 1.492-0.33753 2.25 0.0307 1.3781-0.57814 1.3781c-0.60885 0-1.107-0.60784-1.107-1.3508zm3-0.20824c0-0.85746 0.45734-1.2764 1.0163-0.9309 0.55897 0.34546 0.75741 1.047 0.44098 1.559-0.85724 1.387-1.4573 1.1284-1.4573-0.62811zm24.871 0.80901c-0.35186-2.0465-0.69876-6.2659-0.90435-11-0.1254-2.8875-0.5332-5.25-0.90622-5.25s-1.5517-0.70837-2.6194-1.5742c-1.0676-0.86579-1.3091-1.2463-0.53662-0.84549 0.92339 0.47906 1.1601 0.33318 0.69098-0.42585-0.39244-0.63498-1.3316-1.1545-2.0871-1.1545-0.75548 0-1.6592-0.9-2.0084-2-0.34913-1.1-1.2794-2-2.0674-2s-1.4326-0.64948-1.4326-1.4433-0.93157-2.0958-2.0702-2.8933c-1.5082-1.0564-1.7118-1.5933-0.75-1.9778 0.98041-0.39195 0.99846-0.54809 0.0701-0.60672-0.6875-0.0434-1.2569-0.86645-1.2653-1.829-0.0132-1.5127-0.16161-1.5466-1.0943-0.25-0.91549 1.2727-0.99529 1.2389-0.52657-0.22263 0.34604-1.079-0.26227-2.2933-1.6282-3.25-1.1993-0.84005-1.6039-1.5274-0.89909-1.5274s0.99887-0.45734 0.65341-1.0163c-0.34547-0.55897-1.0198-0.77424-1.4985-0.47838-0.47871 0.29585-0.80185-0.3718-0.7181-1.4837 0.18396-2.4421-0.0564-2.4354 2.6655-0.0747 1.2347 1.0708 1.9451 2.432 1.5787 3.0248s-0.0907 0.9542 0.61273 0.80307c0.70338-0.15113 1.3026 0.17522 1.3316 0.72522 0.0833 1.5794 3.1549 5.5499 3.7968 4.908 0.31861-0.31861 1.0816 0.35925 1.6955 1.5064 0.61391 1.1471 1.8879 2.0925 2.831 2.101 1.1202 0.01 1.3128 0.27109 0.55555 0.75294-1.4103 0.89737 1.7387 5.2233 3.8196 5.2471 1.115 0.0127 1.116 0.15712 6e-3 0.86083-1.0978 0.69589-1.0831 0.94173 0.0827 1.3891 1.9212 0.73723 2.3721-9.2919 0.54988-12.231-1.0844-1.7492-1.059-2.2442 0.15348-2.9986 0.79874-0.49693 1.8112-0.68164 2.25-0.41048 0.43876 0.27117 0.8153-0.096 0.83675-0.81598 0.0514-1.725 7.8572-7.4171 15.21-11.091 5.1647-2.5808 6.5235-2.8517 11.307-2.2541 4.9754 0.62164 5.3822 0.52476 4.7958-1.1422-0.35238-1.0018-1.9075-3.1742-3.4558-4.8276-2.0891-2.2308-2.5629-3.3914-1.837-4.5 0.86713-1.3245 1.0816-1.3238 1.8913 6e-3 0.50228 0.825 1.6423 2.4 2.5335 3.5 1.5833 1.9544 1.6057 1.943 0.98228-0.5-0.35088-1.375-1.7242-3.4169-3.0518-4.5376-2.7822-2.3486-3.0965-4.2632-0.84171-5.1285 1.2761-0.4897 1.4633-1.6873 0.99396-6.3609-0.31797-3.1667-1.2504-7.3667-2.0721-9.3332s-1.494-4.404-1.494-5.4166-0.63247-2.7059-1.4055-3.7631c-1.3006-1.7787-1.363-1.7001-0.83671 1.0532l0.56877 2.9753-3.5314-3.7443c-3.9002-4.1354-7.5322-4.7622-15.295-2.6394-6.9953 1.9129-8.8315 4.8786-6.3681 10.285 1.0446 2.2926 1.5138 2.4391 6.0808 1.8982l4.9489-0.58612-0.33079 2.8989c-0.24701 2.1647-0.92869 2.9835-2.6918 3.233-1.5648 0.22143-2.1244-0.0488-1.6593-0.80134 0.6189-1.0014-6.114 1.2681-7.3099 2.464-0.23807 0.23806-1.1612 0.0439-2.0514-0.43158-1.3081-0.69861-1.6602-0.28997-1.8357 2.1304-0.18347 2.5296 0.0107 2.8057 1.25 1.7772 1.2134-1.007 1.4672-0.84025 1.4672 0.96378 0 1.4109-0.41326 1.9261-1.1699 1.4584-0.79765-0.49297-0.95676-0.16751-0.5 1.0228 0.36846 0.96021 0.66994 2.4322 0.66994 3.271 0 0.94489 0.57072 1.3062 1.5 0.9496 0.825-0.31658 1.5-0.19219 1.5 0.27643s1.125 1.0671 2.5 1.33c2.7265 0.5212 3.1694-0.17539 1.3-2.0448-0.66-0.66-0.84972-1.2-0.4216-1.2s2.5525 1.8464 4.7208 4.1032c4.0089 4.1725 4.9117 4.3648 10.472 2.2311 1.2-0.46048 1.5277-0.30333 1.0339 0.49574-0.39768 0.64346-1.3234 1.1699-2.057 1.1699s-1.5969 0.6852-1.9183 1.5226c-0.42196 1.0996-1.0768 1.2684-2.357 0.6076-0.97498-0.50327-3.1227-1.5115-4.7727-2.2406-1.65-0.72903-3.3021-1.4782-3.6713-1.6647-0.36922-0.18656-0.45497 0.4881-0.19055 1.4992 0.36644 1.4013-0.54263 2.29-3.823 3.7373l-4.3038 1.8988 3.9943 1.7656c2.1969 0.97109 4.7818 1.9729 5.7443 2.2262 1.7897 0.47106 2.4035 3.1259 0.93282 4.0348-1.1573 0.71525-9.3405-2.2333-11.433-4.1194-1.1685-1.0533-1.75-1.1751-1.75-0.36635 0 0.66617 2.0064 2.0987 4.4586 3.1835 5.5684 2.4632 6.2782 3.5802 3.7636 5.9229-2.167 2.0189-8.0836 1.796-9.4569-0.35619-0.48067-0.75332-0.73998-0.57518-0.75 0.51524-8e-3 0.91667 0.54719 1.8936 1.2347 2.171 0.79259 0.31982 0.83602 0.53328 0.11869 0.58334-1.8149 0.12665-5.9494-6.1524-6.1742-9.3769-0.11337-1.6257-0.6535-3.4032-1.2003-3.95s-0.99416-1.8042-0.99416-2.7942-0.40787-1.8-0.90638-1.8-0.68448 1.0125-0.41326 2.25c0.39618 1.8076 0.28249 1.9551-0.5783 0.75-0.92023-1.2883-1.0736-1.2447-1.0868 0.30902-0.01 1.1246-0.45797 1.5354-1.1852 1.086-0.77437-0.47859-0.96478-0.18842-0.56314 0.85822 0.33373 0.86971 0.0727 1.7856-0.58007 2.0353-0.72103 0.27584-1.2692-0.67288-1.3966-2.4172-0.11536-1.5792 0.15974-2.8713 0.61133-2.8713s0.59646-1.175 0.32192-2.6111c-0.43877-2.2953-0.24079-2.5291 1.6369-1.9332 1.1748 0.37288 3.4886 0.71642 5.1418 0.76342s3.509 0.69193 4.1242 1.4332c1.6154 1.9464 6.1298 1.4274 10.661-1.2256 0.52912-0.30979-2.0992-5.4268-2.7874-5.4268-1.8558 0-4.7104-10.37-5.6429-20.5-0.35775-3.8861 0.0524-5.9974 1.8413-9.4771 3.3728-6.5609 7.3955-8.5229 17.475-8.5229 10.686 0 12.888 1.518 16.329 11.256 1.376 3.8944 2.8385 7.4174 3.25 7.8289 1.209 1.209 0.85684 12.268-0.4577 14.373-1.0187 1.6312-0.82468 2.3238 1.25 4.462 1.3507 1.3921 3.2854 3.484 4.2992 4.6488 1.8883 2.1694 4.5387 2.2506 13.245 0.40588 2.9592-0.62696 5.6017 0.7501 6.572 3.4248 0.18661 0.51438 2.5794 1.0693 5.3172 1.2331l4.978 0.29783 2.7496-16.465c1.5123-9.0559 3.0312-18.084 3.3754-20.063 0.53012-3.0473 0.17183-4.1178-2.343-7-1.6329-1.8714-3.923-5.2846-5.0891-7.5847-1.1662-2.3002-2.5779-4.465-3.1373-4.8107-1.5182-0.93828 0.69779-4.5138 2.7736-4.4754 0.94315 0.0175 2.5883 0.6925 3.656 1.5 1.0676 0.80751 2.2332 1.4682 2.5903 1.4682 0.35704 0 1.2533-2.5184 1.9917-5.5964 1.0267-4.2798 1.0774-6.2988 0.21563-8.582-1.1373-3.013-0.18657-7.8216 1.5464-7.8216 1.43 0 8.9835 12.296 10.098 16.438 0.60036 2.2314 0.79267 7.0956 0.44374 11.223-0.43078 5.0962-0.24655 7.7303 0.61313 8.7661 0.67593 0.81445 1.9986 2.9905 2.9394 4.8357l1.7104 3.3549-2.2953-1.0591c-1.2624-0.58252-2.0842-1.6216-1.8263-2.3091 0.74064-1.974-1.2883-1.4548-2.3948 0.61285-1.1661 2.179-6.0497 4.4206-8.6239 3.9586-1.4869-0.26685-2.0144 0.86784-3.1049 6.6785-0.72255 3.85-1.4977 9.25-1.7225 12-0.22481 2.75-0.90675 6.2668-1.5154 7.8151-0.60867 1.5483-1.1067 4.173-1.1067 5.8326v3.0175l-5.6019-0.39876c-4.0058-0.28515-5.7458-0.0238-6.107 0.91741-0.95789 2.4962-2.1712 1.3058-2.4807-2.4338-0.27826-3.3621-0.56896-3.714-2.8104-3.4024-1.375 0.19116-2.95 0.68009-3.5 1.0865s-3.7 1.7861-7 3.0659c-3.3 1.2798-6.5584 2.7551-7.2409 3.2784-0.6825 0.52327-3.1575 0.67553-5.5 0.33834-2.3425-0.33718-4.9341-0.17078-5.7591 0.36978-1.1709 0.76723-0.84186 1.0173 1.5 1.1401 2.9922 0.15681 2.9909 0.15915-0.5 0.89966-2.8351 0.60141-2.5502 0.66945 1.5 0.35817 2.75-0.21135 6.2735-0.62465 7.8301-0.91843 1.6772-0.31656 2.5888-0.14374 2.2378 0.42424-0.32577 0.52712 0.20069 1.1653 1.1699 1.4181 1.665 0.43432 1.6657 0.46608 0.0122 0.57568-0.9625 0.0638-1.75 0.566-1.75 1.116s-1.0125 1.0069-2.25 1.0153c-1.8194 0.0124-1.963 0.20081-0.75 0.98468 1.1135 0.71959 0.5185 0.97332-2.309 0.98469-2.2814 9e-3 -3.5612 0.41636-3.191 1.0153 0.38254 0.61897-1.5954 1.038-5.191 1.0997-4.4186 0.0758-5.2106 0.29132-3.309 0.90032 1.9293 0.61788 1.2311 0.8234-3.0589 0.90032-3.1944 0.0573-6.3845 0.72419-7.5 1.5679-1.8879 1.4279-1.8778 1.4691 0.36788 1.5 1.5621 0.0215 2.0807-0.37254 1.6033-1.2182-0.5409-0.95805-0.41154-0.9784 0.55385-0.0871 2.1212 1.9584 0.10457 3.6103-3.6614 2.9992l-3.441-0.5584 0.3181 15.95c0.17495 8.7722-0.0194 15.949-0.4319 15.948-0.4125-7.4e-4 -0.80803-0.33886-0.87895-0.75136zm21.398-42.906c-0.67703-0.27393-2.027-0.2906-3-0.0371-0.97297 0.25355-0.41903 0.47767 1.231 0.49805 1.65 0.0204 2.4461-0.18707 1.769-0.46099zm1.231-52.344c-0.33992-0.55-1.154-0.99311-1.809-0.98469-0.71562 9e-3 -0.59228 0.40223 0.30902 0.98469 1.9211 1.2415 2.2673 1.2415 1.5 0zm-3.5-1c0-0.55-0.47656-1-1.059-1s-0.7809 0.45-0.44098 1 0.81647 1 1.059 1 0.44099-0.45 0.44099-1zm63.432-8.9851c-0.0375-5.4915-0.30667-10.223-0.5982-10.515-0.71271-0.7127-1.9432 18.513-1.2561 19.625 1.4479 2.3427 1.9167 0.0391 1.8543-9.1106zm-6.4384 2.483c1.4501 0.46026 2.0065 0.18354 2.0065-0.99793 0-1.1865-0.55537-1.4585-2.0251-0.99203-1.1138 0.35352-1.9605 0.27134-1.8816-0.18261 0.34424-1.9794-0.19191-2.4884-1.488-1.4127-1.8659 1.5486-3.9347 1.0057-4.8653-1.2768-0.57871-1.4195-1.0777-1.6004-2.092-0.75868-0.73261 0.60801-1.7258 0.77187-2.207 0.36415-0.48126-0.40773-0.21503 0.11512 0.59163 1.1619 0.80665 1.0468 2.8168 2.4917 4.467 3.2109 1.6502 0.71919 2.3519 1.3252 1.5593 1.3468-1.035 0.0281-0.89416 0.44002 0.5 1.4618 1.7331 1.2702 2.0208 1.2091 2.6846-0.56946 0.53616-1.4366 1.303-1.8145 2.75-1.3553zm4.0065-4.4665c0-0.53274-0.675-0.7096-1.5-0.39302-0.825 0.31659-1.5 0.75246-1.5 0.96862s0.675 0.39301 1.5 0.39301 1.5-0.43588 1.5-0.96861zm-0.5-4.0314c-0.33992-0.55-1.154-0.99311-1.809-0.98469-0.71562 9e-3 -0.59228 0.40223 0.30902 0.98469 1.9211 1.2415 2.2673 1.2415 1.5 0zm-4.0427-0.9309c0.31643-0.512 0.16514-1.1844-0.3362-1.4943-0.50134-0.30984-1.1696 0.10906-1.4849 0.9309-0.6217 1.6201 0.88076 2.0849 1.8211 0.56336zm3.5427-9.5101c0-0.24254-0.45-0.7191-1-1.059s-1-0.14148-1 0.44098 0.45 1.059 1 1.059 1-0.19844 1-0.44098zm-76 121.57c0-0.48125 1.1168-0.875 2.4818-0.875s2.2384 0.39375 1.941 0.875-1.4142 0.875-2.4818 0.875-1.941-0.39375-1.941-0.875zm21.687-1.4975c-0.41916-1.0923 0.0743-1.4099 1.8901-1.2163 3.0838 0.32879 3.6382 1.9866 0.79984 2.3916-1.1776 0.16801-2.3753-0.35533-2.69-1.1754zm30.841-11.684c0.28033-2.2311 0.55449-4.3686 0.60924-4.75 0.3393-2.3633-0.47617-3.1934-3.1373-3.1934-1.65 0-3-0.47655-3-1.059s-0.51953-0.73793-1.1545-0.34549c-0.71626 0.44267-0.88302 0.27425-0.43931-0.44369 0.49363-0.79872 1.2834-0.8531 2.5495-0.17552 2.108 1.1282 5.0531-1.2348 3.0681-2.4616-0.59034-0.36484-1.0089-0.29241-0.93014 0.16097 0.35209 2.0268-0.22612 2.1984-1.935 0.57433-1.8602-1.7678-1.8787-3.25-0.0406-3.25 0.55 0 0.70135 0.48323 0.33634 1.0738s0.27345 0.48859 1.4188-0.22669l2.0824-1.3005-2.0952-1.1213c-1.8427-0.98619-1.894-1.1985-0.42588-1.7618 1.1517-0.44195 1.4484-0.25653 0.95702 0.59798-0.39175 0.6812-0.45262 1.0135-0.13527 0.73854 0.31734-0.275 0.65276-0.95 0.74536-1.5s0.6352-1.5625 1.2058-2.25c1.5576-1.8767-9e-3 -1.5078-3.5531 0.83674l-3.1544 2.0867 2.5-2.1404c5.8933-5.0456 5.7427-4.9768 5.8374-2.6663 0.0481 1.1732 0.29492 3.0332 0.54849 4.1332s0.49546 3.2375 0.53755 4.75c0.0421 1.5125 0.57574 2.75 1.1859 2.75 0.67906 0 0.95091-1.3577 0.7008-3.5-0.23704-2.0305 0.0319-3.5064 0.6406-3.5153 0.57706-8e-3 0.44866-0.39599-0.28534-0.86126-1.0146-0.64317-0.83486-0.97662 0.75-1.3911 1.1465-0.29981 2.0845-1.2622 2.0845-2.1387 0-0.87649 0.675-1.5936 1.5-1.5936s1.5-0.536 1.5-1.1911c0-0.65513 0.66069-0.31763 1.4682 0.75 1.3781 1.8221 1.4702 1.8294 1.5 0.1197 0.0175-1.0018 0.79413-2.5768 1.7258-3.5 1.5714-1.557 1.6484-1.5578 1.0632-0.0113-0.89528 2.3659 1.6406 3.0281 4.9619 1.2957 1.5295-0.79782 2.3309-1.4677 1.7809-1.4886-0.55-0.0209-0.325-0.58615 0.5-1.2562s2.175-2.0794 3-3.1319c1.4321-1.8271 1.3868-1.8536-1-0.58628-2.3634 1.2549-2.418 1.2276-1-0.5 1.4113-1.7194 1.3598-1.7527-0.87068-0.56395-1.3039 0.69492-2.094 0.81575-1.7557 0.26851 0.33821-0.54724-0.0226-1.2396-0.8017-1.5386-0.84323-0.32358-1.2065-1.3472-0.89744-2.529 0.38733-1.4812-0.27564-2.3965-2.6103-3.6038-1.7212-0.89009-2.8632-2.0492-2.5378-2.5758 0.32544-0.52658 0.81671-0.95742 1.0917-0.95742s0.22189 0.45-0.11803 1-0.14148 1 0.44098 1 1.059-0.72314 1.059-1.607c0-1.0118 0.55108-1.3955 1.488-1.036 0.8184 0.31405 1.3809 0.0809 1.25-0.51801-0.1309-0.59896 0.3248-1.2954 1.0127-1.5476 0.80138-0.29382 1.0324 0.11032 0.64301 1.125-0.40455 1.0542-0.0508 1.5836 1.0583 1.5836 1.0047 0 1.3828-0.45829 0.95249-1.1545-0.41667-0.67417-0.27679-0.88459 0.33619-0.50575 0.57735 0.35682 1.299-7.3e-4 1.6036-0.79456 0.39284-1.0237 0.0599-1.2665-1.1452-0.83493-0.93449 0.33462-1.3655 0.24061-0.95775-0.20892 0.40773-0.44952 0.24013-1.4212-0.37244-2.1593-0.61258-0.7381-0.77857-1.342-0.36888-1.342s0.12729-0.76138-0.62756-1.692c-0.75484-0.93057-0.88494-1.4004-0.28911-1.044 0.59583 0.35639 1.0833 0.0126 1.0833-0.76405 0-0.77661-0.375-1.1803-0.83333-0.89699-0.45833 0.28326-0.83333 0.0385-0.83333-0.54399 0-0.58246 0.55012-1.059 1.2225-1.059s0.21485-0.70579-1.0167-1.5684-1.9833-1.9825-1.6706-2.4886c0.31277-0.50606-0.12712-0.65312-0.97752-0.32679-0.85041 0.32633-1.3164 0.96508-1.0356 1.4194 0.28081 0.45436 0.0927 1.0844-0.41796 1.4-1.3059 0.80707-0.77067-1.9276 0.73148-3.7375 1-1.205 0.99131-1.6171-0.0438-2.0746-0.71045-0.31405-0.16673-0.47031 1.2083-0.34725 1.375 0.12307 2.5 0.74876 2.5 1.3904 0 0.64166 0.375 1.5417 0.83333 2 0.45833 0.45833 0.68333 0.22759 0.5-0.51277-0.18333-0.74035 0.79167-1.753 2.1667-2.2503 2.228-0.80584 2.3096-0.7562 0.75 0.45634-2.9487 2.2925-1.9398 2.9114 1.1544 0.70817 5.0539-3.5987 6.2255-2.8827 6.0239 3.6819-0.0971 3.1625 0.0907 7.325 0.41733 9.25 0.32665 1.925 0.86574 6.1842 1.198 9.4649 0.33223 3.2807 0.8224 6.3182 1.0893 6.75 0.26686 0.43179-0.10386 0.79197-0.82382 0.80039-1.0152 0.0119-0.99576 0.21366 0.0867 0.89907 0.91884 0.58181 1.1226 1.5162 0.59632 2.7347-0.43968 1.018-0.71597 2.5558-0.61398 3.4172 0.2891 2.4421-2.8761 4.5634-8.878 5.9498-5.3331 1.232-7.3228 2.5244-16.635 10.806-2.2745 2.0227-4.7977 4.1978-5.6072 4.8336-0.80945 0.63579-1.7663 2.9983-2.1264 5.25-0.8557 5.3512-2.7749 5.3854-2.103 0.0374zm9.472-22.301c0-1.2705-0.4619-0.70324-1.9197 2.3578-1.1226 2.3573-1.1018 2.3892 0.36454 0.55888 0.85534-1.0676 1.5552-2.3801 1.5552-2.9167zm13.6-15.078c0-1.3395-0.36734-2.2084-0.81632-1.9309-0.44897 0.27748-0.55741 0.92342-0.24098 1.4354 0.31643 0.512-0.0137 0.9378-0.73369 0.94622-0.95119 0.0111-0.89898 0.28029 0.19099 0.98468 0.825 0.53316 1.5225 0.97627 1.55 0.98469 0.0275 8e-3 0.05-1.0806 0.05-2.4201zm5.0667-4.0206c0-0.8008-0.375-1.2242-0.83333-0.94098s-0.83333-0.23467-0.83333-1.151c0-1.2021-0.48729-1.4598-1.75-0.9255-0.9625 0.40728-2.5472 0.70766-3.5216 0.66751-0.97438-0.0402-1.4914 0.38045-1.1488 0.93466s1.1624 0.80057 1.822 0.54746c0.65958-0.2531 2.3016 0.15028 3.6488 0.89639 1.3473 0.74612 2.4871 1.3725 2.533 1.392 0.0458 0.0195 0.0833-0.61977 0.0833-1.4206zm-2.6667-9.544c-1.2351-0.79816-1.2498-0.97208-0.0833-0.98469 0.77917-8e-3 1.1466-0.28537 0.81653-0.61544-0.89821-0.89822-2.8555 0.59328-2.1905 1.6692 0.31643 0.512 1.1113 0.92401 1.7663 0.91559 0.71562-9e-3 0.59228-0.40223-0.30901-0.98469zm-105.92 51.321c-0.0418-1.1982-0.75107-2.8536-1.5761-3.6786s-1.5-2.1644-1.5-2.9764c0-0.81203-2.1375-2.7255-4.75-4.2522-11.047-6.4556-23.806-18.715-26.709-25.663-2.6033-6.2307-0.56285-34.315 3.1751-43.7l0.97516-2.4485 0.51584 2.6985c0.3822 1.9993 0.11133 2.6984-1.0455 2.6984-1.0595 0-1.234 0.32727-0.54314 1.0182 0.56 0.56 3.7568 1.1225 7.104 1.25 3.3472 0.12749 5.8587 0.5996 5.5812 1.0491-0.27753 0.44952 0.45866 1.0692 1.636 1.3771 2.0157 0.52713 2.043 0.66765 0.46697 2.4091-0.9205 1.0171-2.0215 1.6343-2.4467 1.3715s-0.51918 0.49319-0.20883 1.68c0.42037 1.6075 0.22968 1.951-0.74777 1.3469-0.87564-0.54117-1.0714-0.42145-0.58842 0.35994 0.39798 0.64396 1.0762 0.9529 1.5072 0.68655 0.43097-0.26636 1.6374 0.20967 2.6809 1.0578 1.0435 0.84817 1.3348 1.2572 0.64733 0.90895-0.74586-0.3778-1.25 0.0194-1.25 0.98486 0 0.88992 0.46971 1.3277 1.0438 0.97293 1.332-0.82323 4.1274 1.441 3.344 2.7086-0.32458 0.52518-1.3184 0.67541-2.2085 0.33384-0.89011-0.34156-1.2936-0.29626-0.89667 0.10068 0.39693 0.39693-0.0416 1.5651-0.97441 2.5959-1.4686 1.6228-1.4825 1.7922-0.10334 1.263 0.87603-0.33616 1.8777-0.15018 2.226 0.41329 0.34825 0.56348 1.2759 0.77788 2.0614 0.47644 1.0272-0.39417 1.3124 0.0532 1.0158 1.5934-0.24987 1.2975 0.19296 2.3738 1.1236 2.7309 1.1827 0.45385 1.2454 0.76903 0.27254 1.3703-1.6447 1.0165-2.1321 4.2422-0.54918 3.6348 1.2697-0.48721 1.5413 3.743 0.31886 4.9654-1.6458 1.6458-0.6257 3.461 1.5761 2.8045 2.1488-0.64066 2.1645-0.60559 0.34851 0.77996-1.4806 1.1297-1.6124 1.6294-0.5955 2.2579 0.91824 0.5675 1.0658 0.41849 0.49699-0.50187-0.55075-0.89112-0.41965-1.0684 0.41063-0.55523 0.93313 0.57671 0.87055 1.1416-0.2664 2.4045-1.3288 1.476-1.2099 1.9682 1.1235 4.6507 1.4353 1.65 2.3138 2.2125 1.9523 1.25-0.40786-1.0859-0.18129-1.75 0.59704-1.75 1.4987 0 1.7124 3.972 0.21861 4.0634-0.56964 0.0349 0.0812 0.509 1.4464 1.0536 1.6918 0.67495 2.5939 0.65477 2.8333-0.0634 1.0847-3.2541 1.7657 0.0291 1.6215 7.8171-0.15192 8.2033-0.024 8.8341 1.6994 8.3834 1.025-0.26805 1.8637 0.0151 1.8637 0.62927 0 0.61415-0.50384 1.0041-1.1196 0.86663-0.6158-0.1375-1.7066 1.325-2.4239 3.25-0.98312 2.6381-1.323 2.9635-1.3804 1.3214zm-0.40941-18.726c0-0.77257-0.59741-1.1754-1.3276-0.89522-0.73017 0.28019-1.0786 0.91229-0.77431 1.4047 0.84636 1.3694 2.1019 1.0651 2.1019-0.50944zm-10.14-21.402c-0.30789-0.30788-1.1148-6.3e-4 -1.7931 0.68279-0.98027 0.98761-0.8654 1.1025 0.55979 0.55979 0.98623-0.37553 1.5412-0.93469 1.2333-1.2426zm-20.425-29.905c-0.96059-1.6506-1.0427-1.6279-1.0708 0.29565-0.0338 2.3149 1.2352 4.1198 1.7695 2.5168 0.18788-0.56366-0.12656-1.8293-0.69876-2.8125zm12.369-2.321c-1.7191-1.8996-5.0216-2.3364-3.4626-0.45799 0.53649 0.64644 0.76935 1.3814 0.51745 1.6333-0.25189 0.2519 0.64031 0.45799 1.9827 0.45799 2.1947 0 2.2917-0.16461 0.96251-1.6333zm21.03 72.033c-0.33992-0.55-0.14148-1 0.44098-1s1.059 0.45 1.059 1-0.19845 1-0.44099 1-0.71909-0.45-1.059-1zm45.011-3.9829c-0.46414-0.75099 0.18431-0.88081 2.0548-0.41134 1.9329 0.48512 2.5256 0.35048 2.0248-0.45992-0.38949-0.63022-0.19411-1.1458 0.43418-1.1458 0.6283 0 0.95711 0.5625 0.73069 1.25-0.5352 1.6251-4.3677 2.1857-5.2444 0.76711zm-19.802-0.64159c-1.3457-1.3457-0.69851-1.8755 2.2912-1.8755 1.65 0 2.8522 0.45 2.6717 1-0.40123 1.222-3.9842 1.8541-4.9628 0.87552zm-22.152-1.9573c-1.0668-0.78003-1.516-1.4113-0.99842-1.4029 1.3822 0.0225 3.961 1.7982 3.4106 2.3486-0.25993 0.25994-1.3454-0.16559-2.4122-0.94563zm4.776 0.12575c0-0.8008 0.38234-1.2197 0.84965-0.9309 0.4673 0.28881 0.59074 0.94402 0.27431 1.456-0.80862 1.3084-1.124 1.1611-1.124-0.52511zm-4.5208-6.2271c0.72187-0.28887 1.5844-0.25334 1.9167 0.0789 0.33229 0.33229-0.25833 0.56864-1.3125 0.52522-1.1649-0.048-1.4019-0.28494-0.60416-0.60417zm39.73-1.3169c0.50965-0.825 0.94439-1.95 0.96608-2.5 0.0217-0.55 0.80408-0.93949 1.7386-0.86555 1.3737 0.10869 1.5027-0.23272 0.67346-1.7822-0.92383-1.7262-0.75578-1.8489 1.6911-1.2348 2.3297 0.58472 2.6189 0.42664 2.0295-1.1092-0.56307-1.4673-0.42861-1.5764 0.74382-0.60338 1.1439 0.94934 1.9301 0.68882 3.9168-1.298 1.3671-1.3671 2.2334-2.738 1.9251-3.0463s-9e-3 -0.56061 0.66508-0.56061c0.67412 0 0.96678-0.4189 0.65035-0.9309-0.31643-0.51199-0.14565-1.1965 0.37952-1.521 0.52516-0.32456 0.78103-1.4927 0.56858-2.5958-0.21244-1.1031 0.0275-1.75 0.53322-1.4374 0.50572 0.31255 2.0428-0.16773 3.4157-1.0673 1.9426-1.2728 3.1132-1.4104 5.2782-0.62051 1.6162 0.58969 2.0734 1.0482 1.0911 1.094-0.93004 0.0434-1.9188 0.44752-2.1972 0.898-0.27842 0.45048 0.93253 0.68198 2.691 0.51445l3.1972-0.30461-3.2008 1.0014c-1.7604 0.55076-3.4713 1.4391-3.8019 1.9741-0.3519 0.56938 0.146 0.70911 1.2008 0.33698 1.2397-0.43737 1.4899-0.30808 0.80194 0.41439-0.55 0.57756-1.9 1.233-3 1.4566s-1.8966 0.91481-1.7703 1.5361c0.12633 0.62132-0.72063 1.4313-1.8821 1.7999-1.6614 0.5273-1.817 0.85697-0.72969 1.5456 1.0961 0.69423 1.02 0.87853-0.36787 0.89067-0.9625 8e-3 -1.75 0.43499-1.75 0.94793 0 0.51293-0.95946 1.2371-2.1321 1.6093-1.355 0.43008-1.7176 0.93291-0.99473 1.3797 0.69018 0.42656-0.28952 1.3834-2.4917 2.4335-1.996 0.95182-3.8695 1.4902-4.1633 1.1964s-1.1381-0.033-1.8762 0.57959c-1.0005 0.8303-1.342 0.79692-1.342-0.13113 0-0.94292-0.41041-0.91198-1.692 0.12756-1.4605 1.1847-1.5652 1.1673-0.76531-0.12756zm-26.138-5.25-1.905-2.25 2.25 1.905c2.1144 1.7902 2.7052 2.595 1.905 2.595-0.18975 0-1.2022-1.0125-2.25-2.25zm66.674-6.3333c0.048-1.1649 0.28494-1.4019 0.60417-0.60417 0.28887 0.72188 0.25334 1.5844-0.0789 1.9167-0.33229 0.33229-0.56864-0.25833-0.52522-1.3125zm-94.079-3.4167c-0.825-0.53315-1.05-0.96937-0.5-0.96937s1.675 0.43622 2.5 0.96937c0.825 0.53316 1.05 0.96938 0.5 0.96938s-1.675-0.43622-2.5-0.96938zm88.37-1.25c0.33164-1.2375 0.60912-2.5875 0.61663-3 8e-3 -0.4125 0.38572-0.75 0.84046-0.75 0.45475 0 0.62867 1.35 0.3865 3-0.24216 1.65-0.89171 3-1.4434 3-0.55228 0-0.73213-1.0112-0.40016-2.25zm-80.37-2.25c-0.73499-1.3733-1.0483-2.7851-0.69616-3.1372 0.35211-0.3521 1.1154 0.60963 1.6962 2.1372 1.3639 3.5874 0.72608 4.2252-1 1zm97.5-3.5c-0.33992-0.55-0.25398-1.0069 0.19098-1.0153 0.44496-8e-3 0.13402-0.45153-0.69098-0.98469-1.3333-0.86166-1.3333-0.97277 0-1 1.3333-0.0272 1.3333-0.13833 0-1-0.825-0.53315-1.05-0.96937-0.5-0.96937s1.675 0.43622 2.5 0.96937c0.90409 0.58427 1.0262 0.97546 0.30741 0.98469-0.65592 8e-3 -1.0192 0.91531-0.80741 2.0153 0.4168 2.1643-0.0141 2.5952-1 1zm-3.9357-3.7069c-0.54269-1.4252-0.42782-1.5401 0.55979-0.55979 0.68342 0.67833 0.99068 1.4852 0.68279 1.7931-0.30789 0.30788-0.86705-0.24712-1.2426-1.2333zm26.198-10.046c-0.95552-4.8107-1.9669-9.8716-2.2475-11.247s0.36634 0.16766 1.4376 3.4281c1.8024 5.4855 3.7519 16.576 2.9124 16.569-0.20087-2e-3 -1.147-3.9393-2.1025-8.75zm-86.763-0.21706c-1.5372-1.2206-1.9544-1.9937-1.0833-2.0074 1.9595-0.0308 0.8095-0.99723-1.78-1.4959-5.3776-1.0356-8.5756-5.6859-5.1654-7.5109 1.4181-0.75893 1.7692-0.59819 1.6632 0.76128-0.18991 2.4343 3.3458 2.3148 6.21-0.21002 2.2933-2.0216 2.3369-2.0235 2-0.0897-0.29594 1.6987 0.18336 1.9563 3.4056 1.8302 2.6414-0.10332 3.75 0.27304 3.75 1.2731 0 0.78088-0.45 1.4198-1 1.4198s-1 0.50249-1 1.1166c0 0.62455 0.88196 0.88599 2.0014 0.59325 1.1008-0.28785 1.7492-0.11533 1.441 0.38337-0.30822 0.49871-1.847 0.90674-3.4196 0.90674-3.3326 0-6.0228 0.88625-6.0228 1.9842 0 0.42359 2.025 0.54192 4.5 0.26296 2.9778-0.33565 4.5-0.12497 4.5 0.62283 0 0.62153-0.7875 1.1362-1.75 1.1437-0.9625 8e-3 -2.65 0.23582-3.75 0.50735-1.1317 0.27937-3.0854-0.36812-4.5-1.4914zm2-4.4706c0-1.0555-1.9191-1.4989-2.4899-0.57533-0.34547 0.55897 0.0734 1.0163 0.9309 1.0163 0.85746 0 1.559-0.19844 1.559-0.44098zm-49.447 0.52639c-0.32197-0.52097-0.15916-1.2106 0.36181-1.5326 0.52096-0.32198 1.2106-0.15917 1.5326 0.3618s0.15916 1.2106-0.3618 1.5326c-0.52097 0.32198-1.2106 0.15917-1.5326-0.3618zm57.447-4.0854c-1.1749-1.65-1.8647-3-1.5329-3 1.4953 0 5.5329 3.3678 5.5329 4.615 0 2.2758-1.7256 1.5791-4-1.615zm57.333-0.45601c0-0.80081 0.38234-1.2197 0.84965-0.9309 0.4673 0.28881 0.59074 0.94401 0.27431 1.456-0.80862 1.3084-1.124 1.1611-1.124-0.52511zm-61.777-7.7665c-2.1984-3.1387-1.9964-3.6044 1.8784-4.3313 4.2394-0.79533 7.2784 0.62501 3.5548 1.6614-2.2942 0.63853-2.3177 0.70086-0.29894 0.7927 2.9832 0.13572 4.0193 2.0958 1.118 2.115-1.8576 0.0123-2.0158 0.20482-0.80901 0.98469 1.1731 0.75809 0.91296 0.97271-1.1933 0.98469-1.6618 9e-3 -3.2895-0.83585-4.25-2.2072zm78.559-1.3275c-0.0638-1.1275-0.5644-2.5916-1.1124-3.2536-0.54804-0.66196-0.2798-0.58015 0.59609 0.1818 0.87588 0.76196 1.3765 2.2261 1.1124 3.2536-0.4328 1.6842-0.49152 1.6663-0.59609-0.1818zm-17.606-0.46631c0.34546-0.55897 1.047-0.75741 1.559-0.44098 1.387 0.85724 1.1284 1.4573-0.62811 1.4573-0.85746 0-1.2764-0.45734-0.9309-1.0163zm13.505-1.7337c0.0119-2.1429 0.2293-2.4189 0.98469-1.25 1.2644 1.9565 1.2644 4 0 4-0.55 0-0.99311-1.2375-0.98469-2.75zm-130.14-8.7915c2.7694-1.2023 3.1568-1.7206 2.1725-2.9067-0.89-1.0724-1.8374-1.2003-3.6856-0.49762-3.3343 1.2677-7.7065 1.1968-9.0501-0.14684-0.79018-0.79018-0.70884-1.8282 0.29384-3.75 1.7547-3.363 1.7429-4.7387-0.1012-11.819-2.3964-9.2004-1.9931-17.641 1.0948-22.91 1.4271-2.4352 3.0078-4.6829 3.5126-4.9949 1.1722-0.72448 8.8927 2.6451 8.8927 3.8812 0 0.5115-0.675 0.3698-1.5-0.31489-0.94589-0.78501-1.5-0.85205-1.5-0.18146 0 0.58488 0.45734 1.3461 1.0163 1.6915 0.55897 0.34547 0.78957 0.99499 0.51245 1.4434-0.27713 0.4484-0.58243 2.8923-0.67845 5.4309-0.19437 5.1387-1.6077 5.8747-5.7326 2.9855-2.2586-1.582-2.2937-1.5672-1.1864 0.50165 0.62749 1.1725 2.6997 2.7831 4.6048 3.5791 4.7677 1.9921 4.339 3.5494-0.97705 3.5494-4.8763 0-6.5901 1.3013-3.83 2.9081 0.97407 0.56708 1.243 1.0447 0.59768 1.0615-1.3761 0.0357 1.2729 6.0304 2.6648 6.0304 0.46473 0 1.6306 0.30147 2.5908 0.66994 1.1038 0.42356 1.5058 0.28149 1.093-0.38631-1.0236-1.6563 3.195-2.2705 4.7709-0.69461 0.77604 0.77604 1.9811 1.411 2.6778 1.411 0.69676 0-0.40245 1.529-2.4427 3.3978-3.1782 2.9111-3.5786 3.7422-2.7952 5.8026 1.2564 3.3046-0.34589 5.8088-3.6858 5.7604-2.6426-0.0383-2.6282-0.0704 0.67016-1.5024zm-4.9444-26.869c0.83662-1.0081 0.85908-1.6038 0.0786-2.0861-1.3264-0.81979-4.2034 1.3667-3.4347 2.6104 0.7925 1.2823 2.0153 1.0913 3.3561-0.52428zm-3.2368-7.339c-0.25153-0.9625-0.45732-0.175-0.45732 1.75s0.20579 2.7125 0.45732 1.75 0.25153-2.5375 0-3.5zm2.3107-2.5372c0-0.70796-1.0125-1.3568-2.25-1.4419-2.1868-0.15038-2.1955-0.11421-0.30887 1.2872 2.3748 1.7641 2.5589 1.7752 2.5589 0.15473zm0.20664-6.9062c-0.64121-0.64122-1.2136-0.60443-1.6528 0.10622-0.36954 0.59792-0.19533 1.0871 0.38713 1.0871s1.1112 0.7875 1.175 1.75c0.10318 1.5566 0.1688 1.5449 0.59378-0.10622 0.26278-1.0209 0.0364-2.2976-0.50314-2.8371zm2.7934-0.80665c0-0.55-0.47656-1-1.059-1s-0.7809 0.45-0.44098 1 0.81647 1 1.059 1 0.44099-0.45 0.44099-1zm17.5 22.653c0-1.463 0.56509-2.3106 1.5-2.25 0.825 0.0535 1.5-0.57778 1.5-1.4028s-0.525-1.5-1.1667-1.5-1.5042-0.3375-1.9167-0.75-0.0321-0.75 0.84524-0.75c0.87738 0 2.3296 0.73441 3.2273 1.632 1.5094 1.5094 1.4255 1.8476-1.1157 4.5-1.5112 1.5774-2.776 2.868-2.8106 2.868s-0.0629-1.0562-0.0629-2.3472zm-9.1874-1.4384c-1.7295-1.0997-3.3293-5.8593-3.203-9.5294 0.0947-2.7531 0.22741-2.5748 0.97869 1.3151 0.47802 2.475 1.7787 5.2471 2.8904 6.1603 2.9082 2.3888 2.3872 3.9955-0.66612 2.054zm4.6874-2.0329c0-1.2086 1.8972-2.6176 2.5907-1.9241 0.2517 0.25169-0.22824 1.0269-1.0665 1.7226-0.95038 0.78874-1.5242 0.86461-1.5242 0.20151z" fill="#fff"/></g><path class="st1" d="m294.97 110.3c0.6 5.4 2.8 9.7 6.5 12.8s8.5 4.7 14.4 4.7c3.9 0 7.4-0.8 10.5-2.4 3.1-1.7 5.6-3.9 7.4-6.9h18.8c-3.2 8.2-7.9 14.5-14.3 19.1-6.3 4.5-13.7 6.8-22 6.8-5.6 0-10.7-1-15.4-3s-8.9-4.9-12.7-8.8c-3.5-3.7-6.3-7.9-8.2-12.8-2-4.8-2.9-9.8-2.9-14.9 0-5.2 0.9-10.2 2.7-14.8s4.4-8.8 7.9-12.5c3.8-4.1 8.2-7.2 13-9.3 4.8-2.2 9.8-3.3 14.9-3.3 6.5 0 12.6 1.5 18.2 4.4 5.6 3 10.4 7.1 14.4 12.5 2.4 3.2 4.2 6.8 5.4 10.9 1.2 4 1.7 8.6 1.7 13.8 0 0.4 0 1-0.1 1.9 0 0.9-0.1 1.5-0.1 1.9h-60.1zm41.4-13.9c-1.5-5-4-8.8-7.5-11.4s-8-3.9-13.3-3.9c-4.7 0-8.8 1.4-12.5 4.2s-6.2 6.5-7.5 11.1zm88.2 45.9v-9.2c-2.1 3.7-5 6.5-8.8 8.3s-8.7 2.7-14.6 2.7c-11.1 0-20.4-3.8-27.8-11.4s-11.2-17-11.2-28.2c0-5.3 0.9-10.3 2.8-15s4.5-8.9 8-12.5c3.7-4 7.9-6.9 12.4-8.8s9.7-2.8 15.4-2.8c5.5 0 10.2 0.9 14.1 2.7s7.1 4.6 9.5 8.3v-9.1h17v75.1h-16.8zm-44.5-38.2c0 6.3 2.1 11.6 6.3 15.9s9.3 6.4 15.4 6.4c5.5 0 10.3-2.1 14.5-6.4s6.3-9.3 6.3-15c0-6.1-2.1-11.3-6.3-15.7s-9.1-6.6-14.8-6.6c-5.9 0-10.9 2.1-15.1 6.2-4.2 4.2-6.3 9.2-6.3 15.2zm107.9-36.9v15.6h-12.6v59.5h-16.9v-59.5h-8.9v-15.6h8.4v-2c0-7.9 2.2-13.8 6.5-17.7 4.4-3.9 11-5.8 19.9-5.8 0.3 0 0.9 0 1.7 0.1 0.8 0 1.4 0.1 1.9 0.1v15.7h-1.2c-4 0-6.8 0.7-8.5 1.9-1.7 1.3-2.6 3.4-2.6 6.5v1.4h12.3zm-234.8 75.1h17.1v-99.4h-17.1z"/></g></g></svg>
