<?xml version="1.0" encoding="UTF-8"?>
<svg enable-background="new 0 0 542 157" version="1.1" viewBox="0 0 382 150" xml:space="preserve" xmlns="http://www.w3.org/2000/svg"><defs><mask id="a" x="0" y=".3" width="299.2" height="156.7" maskUnits="userSpaceOnUse"><g class="st0"><path class="st1" d="m299.2 156.9h-299.1v-156.6h299.1z"/></g></mask></defs><style>.st0{filter:url(#Adobe_OpacityMaskFilter);} .st1{fill:#FFFFFF;} .st2{mask:url(#a);fill:#FFFFFF;}</style><g transform="translate(-96.803 -1.1987)" fill="#fff"><path d="m136.17 1.1987a39.372 39.372 0 0 0-39.371 39.371v71.258a39.372 39.372 0 0 0 2.209 12.281c1.0473-0.70285 2.0477-1.3938 3.4219-2.2051 2.073-1.2239 2.575-1.5648 3.373-2.291 0.36622-0.33325 1.2129-1.0807 1.8809-1.6602 1.7799-1.5442 3.9805-4.0879 4.5684-5.2812 0.28222-0.5729 0.66663-1.2153 0.85547-1.4277 0.20007-0.22506 0.29678-0.50612 0.23242-0.67383-0.073-0.19025 0.15894-0.60107 0.68164-1.2129 0.43491-0.50906 0.78907-1.0772 0.78907-1.2617 0-0.96068 2.5425-3.6605 5.0273-5.3398 1.142-0.77175 1.8147-1.3458 1.8848-1.6074 0.15635-0.58388 0.13878-1.1542-0.04688-1.5059-0.0885-0.16775-0.26024-0.57031-0.38086-0.89453-0.22497-0.60458-2.172-2.7226-2.9863-3.248l-0.45507-0.29492-0.13672-3.7305c-0.0748-2.0516-0.11959-5.4402-0.09961-7.5312 0.0389-4.0905-0.1142-5.2961-0.98047-7.7559-0.23165-0.65778-0.41992-1.4238-0.41992-1.7031 0-0.90508-0.39042-2.1764-1.6699-5.4434-0.63872-1.6308-1.2778-4.0124-1.5742-5.8594-0.0443-0.27593-0.15828-0.59416-0.25196-0.70703-0.09369-0.11287-0.21956-0.63715-0.27929-1.166-0.11764-1.0411-0.18785-1.3827-0.89454-4.2988-0.46271-1.9094-0.46894-2.0028-0.45898-8.0781 8e-3 -5.0121 0.06213-6.3257 0.28516-7.1133 0.15049-0.53127 0.27827-1.4004 0.28515-1.9316 7e-3 -0.53128 0.08731-1.3608 0.17774-1.8438 0.0905-0.48297 0.23635-1.3144 0.32422-1.8457 0.0879-0.53127 0.36457-1.571 0.61523-2.3125 0.25064-0.7415 0.45508-1.5014 0.45508-1.6875 0-0.70499 0.85481-2.6463 1.8828-4.2773 0.58687-0.93117 1.1138-1.8444 1.1719-2.0273 0.058-0.18294 0.34714-0.47312 0.64062-0.64648 0.29347-0.17336 0.73983-0.64587 0.99219-1.0488 0.25238-0.40297 0.5118-0.77201 0.57617-0.82031 0.0643-0.04829 0.36028-0.44227 0.6582-0.87695 0.29791-0.43469 0.79489-1.0286 1.1055-1.3184 0.3106-0.28979 1.137-1.2401 1.8359-2.1133 1.3205-1.6497 1.6619-1.8884 4.3965-3.0566 0.48298-0.20634 1.3384-0.60821 1.9004-0.89453 0.56203-0.28633 1.1778-0.52148 1.3692-0.52148 0.19139 0 0.57815-0.11824 0.85937-0.26367 0.63499-0.32837 2.7819-0.79028 3.752-0.80664 0.94258-0.01589 3.4942-0.45664 4.502-0.77734 0.43469-0.13834 1.3434-0.32378 2.0195-0.41406 0.67618-0.09026 1.9808-0.33712 2.8984-0.54688s2.1034-0.43759 2.6348-0.50586c0.53138-0.06827 1.0575-0.18049 1.1699-0.25 0.11362-0.07019 0.45162 0.080527 0.75977 0.33984 0.5423 0.45632 0.56574 0.46117 1.1113 0.17383 0.30688-0.16161 0.81729-0.48475 1.1348-0.7168 0.58306-0.42617 1.9118-0.79883 2.8457-0.79883 0.27935 0 0.5537-0.073921 0.60937-0.16406 0.0557-0.090087 0.31806-0.16155 0.58203-0.16016 0.26396 0.0018 0.83485-0.07592 1.2695-0.17188 0.43467-0.096004 1.2642-0.26588 1.8438-0.37695 0.57958-0.11108 1.3908-0.27656 1.8027-0.36719 0.41191-0.090635 1.2656-0.16406 1.8965-0.16406h1.1465l-0.10743 0.58203c-0.0724 0.38573-0.03131 0.64618 0.12305 0.77148 0.23346 0.1895 2.815 1.5095 4.0547 2.0742 0.59337 0.2703 1.049 0.98027 0.79297 1.2363-0.19268 0.19269-5.5035-0.50973-5.8027-0.76758-0.27928-0.24063-0.34738-0.2301-0.71289 0.11328-0.35569 0.33414-0.60589 0.37997-2.0625 0.38086-0.91143 5.57e-4 -2.1174 0.077852-2.6797 0.16992-1.3607 0.22285-4.3117 1.3358-4.8613 1.834-0.24146 0.21888-0.8621 0.65246-1.3789 0.96289-1.8884 1.1343-2.7006 2.3313-2.8633 4.2188-0.0632 0.7331-0.17043 1.5442-0.23828 1.8047-0.09 0.34596-0.0207 0.61743 0.25586 1.0059 0.41296 0.57995 0.34743 0.88438-0.32422 1.4922-0.2761 0.24989-0.36914 0.54356-0.36914 1.1797 0 0.53702-0.12723 1.0571-0.34961 1.4219-0.4497 0.73758-0.44525 0.77398 0.13086 1.0488 0.55017 0.26247 0.71675 0.9444 0.38281 1.5684-0.1807 0.33765-0.15426 0.43848 0.18945 0.7168 0.21951 0.17775 0.53469 0.27941 0.70118 0.22656 0.32667-0.10367 2.2832 1.411 2.2832 1.7676 0 0.1091-0.15837 0.34079-0.35156 0.51562-0.53966 0.48838-0.44377 1.2131 0.26367 1.9961 0.33806 0.37422 0.61523 0.76875 0.61523 0.87695s-0.2609 0.53891-0.58008 0.95703c-0.31916 0.41812-0.68814 1.0176-0.81836 1.332-0.22027 0.53176-0.20693 0.59989 0.18555 0.9707 0.50551 0.47761 1.9324 1.0293 2.2988 0.88867 0.14381-0.05522 0.36697 0.024454 0.49414 0.17773 0.19725 0.23767 0.15216 0.36301-0.30273 0.84375-0.72451 0.76567-0.92579 1.2067-0.92579 2.0234 0 0.54193 0.11634 0.80737 0.53711 1.2188 0.5234 0.51172 0.53169 0.5428 0.28516 1.1328-0.13942 0.33369-0.48048 0.77797-0.75781 0.98633-0.96724 0.72664-0.98506 0.75414-0.87891 1.418 0.0752 0.47009-0.00957 0.86664-0.32617 1.5137-0.43675 0.8919-0.60818 2.5948-0.28125 2.7969 0.0876 0.05412 0.11737 0.25832 0.06641 0.45312-0.0559 0.21381 0.08923 0.62886 0.36718 1.0488 0.25319 0.38261 0.46094 0.78881 0.46094 0.90234 0 0.11353-0.28447 0.71699-0.63281 1.3398l-0.63477 1.1328-0.91601-0.11523c-1.2187-0.15227-1.6766 0.19391-1.8086 1.3652-0.18086 1.6045-1.1726 1.8483-3.2676 0.80469-0.56376-0.28082-1.2805-0.50976-1.5918-0.50976-0.33306 0-0.97801-0.2492-1.5664-0.60352-2.0554-1.2377-4.6993-2.3596-5.916-2.5098-0.33808-0.04172-0.93003-0.22018-1.3164-0.39844-0.95987-0.44285-3.1244-1.2305-3.3809-1.2305-0.11509 0-0.46796 0.10983-0.78516 0.24414-0.31722 0.13431-1.024 0.32562-1.5703 0.42578-1.6578 0.30395-2.8298 0.94644-3.6875 2.0215-0.41948 0.52579-0.97987 1.0876-1.2441 1.248-0.36212 0.21984-0.56577 0.5817-0.82812 1.4688-0.30452 1.0296-0.66045 3.296-0.68164 4.3379-3e-3 0.19318-0.06338 0.73263-0.13086 1.1973-0.0734 0.50598-0.04659 0.99816 0.0664 1.2285 0.10379 0.21154 0.21862 0.85988 0.25391 1.4395 0.0671 1.1014 0.46211 2.0855 1.625 4.0391 0.34501 0.57958 0.75221 1.3299 0.9043 1.668 0.68655 1.5262 0.87705 1.8111 1.8184 2.709 0.54993 0.52456 1.2643 1.3744 1.5879 1.8887 1.2174 1.9348 2.5578 3.6023 3.6914 4.5957 1.4103 1.2359 3.1587 2.3725 4.1172 2.6758 0.85827 0.2716 2.8738 1.0714 3.291 1.3066 0.94733 0.53402 2.9211-0.16417 3.4961-1.2363 0.66474-1.2395 1.8382-2.1035 2.8555-2.1035 0.37005 0 0.45814 0.11021 0.58789 0.74609 0.13318 0.65259 0.20516 0.74096 0.58008 0.70117 0.23984-0.02546 0.65004-0.31534 0.92968-0.6582 0.27497-0.33715 0.56236-0.57451 0.63868-0.52734 0.0764 0.04719 0.22957-0.024886 0.34179-0.16016 0.12521-0.15088 0.13867-0.28762 0.03516-0.35156-0.10635-0.06571-0.09867-0.28622 0.01953-0.59961 0.16679-0.44189 0.27431-0.49805 0.96289-0.49805 0.71145 0 0.79864 0.052546 1.0938 0.63086 0.17663 0.34614 0.66704 0.94971 1.0879 1.3418 0.42084 0.3921 0.84812 0.86 0.95117 1.041 0.18074 0.3175 0.20038 0.31718 0.56641-0.048828 0.20868-0.20869 0.33808-0.49295 0.28516-0.63086-0.20345-0.53015 2.2018-0.64842 4.582-0.22461 1.0271 0.18288 1.2203 0.27217 1.1738 0.53711-0.035 0.19963 0.01777 0.27057 0.14257 0.19336 0.10914-0.06745 0.35415 0.018774 0.54493 0.19141 0.25554 0.23126 0.3182 0.44478 0.23828 0.80859-0.0836 0.38022-0.0345 0.51997 0.21289 0.61133 0.17673 0.06526 0.58829 0.31951 0.91406 0.56445 0.4597 0.34564 0.77355 0.43808 1.4043 0.41211 0.9232-0.03806 1.1967 0.086703 1.4922 0.68164 0.11443 0.23039 0.38469 0.44374 0.59961 0.47461 0.26765 0.03843 0.39063 0.17648 0.39063 0.43945 0 0.22407 0.25452 0.59736 0.61328 0.89648 0.33807 0.2819 0.61523 0.65512 0.61523 0.82812 0 0.34775 0.61219 0.75514 0.88282 0.58789 0.28497-0.17613 0.19384-0.59484-0.17969-0.82812-0.43781-0.27342-0.45084-0.69457-0.03125-1.0742 0.67837-0.61392 1.5015-0.18005 1.7188 0.90625 0.0765 0.38222 0.21365 0.55859 0.43164 0.55859 0.1754 0 0.36908 0.081618 0.42969 0.17969 0.21955 0.35522 1.3786 0.69922 2.3555 0.69922 0.58685 0 1.1395 0.10318 1.3398 0.25 0.20018 0.14671 0.5409 0.21074 0.82422 0.1543 0.26713-0.05321 0.59934 9.03e-4 0.74414 0.12109 0.37154 0.30835 0.95275 0.11011 1.791-0.60742 1.0442-0.89377 2.1719-0.82279 2.0156 0.12695-0.028 0.17003 0.11334 0.5197 0.31445 0.77539 0.20631 0.26226 0.32288 0.59917 0.26758 0.77344-0.0539 0.16988-0.01466 0.35974 0.08594 0.42188 0.10051 0.06216 0.18164 0.30523 0.18164 0.54102 0 0.24935 0.10376 0.42969 0.24609 0.42969 0.31432 0 0.521 0.53175 0.29492 0.75781-0.1138 0.1138-0.11245 0.28805 0.00391 0.50586 0.13433 0.251 0.08959 0.47277-0.18555 0.91797-0.19982 0.32332-0.31775 0.70751-0.26171 0.85352 0.056 0.14602 0.01726 0.31708-0.08594 0.38086-0.29192 0.18042-0.21951 0.62272 0.12109 0.74414 0.16906 0.06023 0.41603 0.19344 0.54883 0.29688 0.13283 0.10347 0.46063 0.16503 0.73047 0.13672 0.39866-0.04177 0.57692 0.073005 0.94531 0.61523 0.24936 0.36697 0.45496 0.82658 0.45703 1.0215 4e-3 0.4281 1.2988 1.3978 1.6738 1.2539 0.14265-0.0547 0.33496-0.299 0.42773-0.54297 0.21933-0.57692 0.70509-0.58788 0.70508-0.01563 0 0.23579-0.07261 0.47325-0.16015 0.52735-0.0876 0.0541-0.11685 0.25612-0.06641 0.44921 0.10316 0.39463 0.52212 0.44821 1.1758 0.1504 0.65091-0.29657 1.2324 0.15819 1.5938 1.2461 0.35634 1.0728 0.95779 1.5898 1.8496 1.5898 0.78284 0 1.906 0.43614 2.043 0.79297 0.1265 0.32966 1.1964 0.62245 1.8184 0.49805 0.26898-0.0538 0.53726-0.0115 0.60351 0.0957 0.17463 0.28254 0.74773 0.23589 0.86524-0.07031 0.0556-0.14489 0.26081-0.26367 0.45703-0.26367 0.23608 0 0.35742-0.11429 0.35742-0.33985 0-0.41381 0.22472-0.5755 0.59961-0.43164 0.16823 0.0645 0.2793 0.31396 0.2793 0.62696 0 0.2858 0.08849 0.68533 0.19726 0.88867 0.16167 0.30209 0.13855 0.41419-0.12304 0.60547-0.25561 0.1869-0.27633 0.27643-0.10157 0.45117 0.12038 0.12039 0.27418 0.22409 0.3418 0.23047 0.0676 6e-3 0.4002 0.1351 0.73828 0.28515 1.4157 0.62835 1.9494 0.74046 4.0391 0.8418 1.2074 0.0585 2.3349 0.17106 2.5039 0.25 0.31394 0.14663 0.41277 0.64223 0.17578 0.88281-0.07249 0.0735-0.13281 0.42094-0.13281 0.77149 0 0.53466-0.08537 0.67748-0.52734 0.89062-1.4321 0.69063-5.7199 4.0489-8.4102 6.5859-0.47223 0.44533-0.94996 0.80859-1.0625 0.80859-0.11253 0-0.47766 0.28505-0.81055 0.63282-0.33288 0.34776-1.3162 1.2323-2.1855 1.9648-0.86937 0.73259-1.6383 1.4256-1.709 1.541-0.0708 0.11542-0.9002 0.80205-1.8438 1.5254-0.94355 0.72333-2.7443 2.3428-4 3.5996-1.2558 1.2568-2.5205 2.406-2.8105 2.5527-0.29002 0.14674-0.68009 0.43583-0.86719 0.64258-0.25614 0.28303-0.461 0.34906-0.83203 0.26758-0.40862-0.0898-0.52035-0.03669-0.65235 0.31054-0.08939 0.23498-0.09602 0.76112-0.01562 1.1992 0.10954 0.59648 0.08599 0.81304-0.09961 0.91797-0.27172 0.1536-0.64362 0.91545-0.96289 1.9707-0.31829 1.0519-1.2688 2.5285-2.2402 3.4805-0.7855 0.7698-0.91935 0.83759-1.4609 0.73242-0.45775-0.089-0.717-0.30376-1.1172-0.92773-0.28648-0.4467-0.74084-1.0628-1.0098-1.3691-0.26892-0.30631-0.48828-0.68477-0.48828-0.83984 0-0.15509-0.3031-0.47302-0.67383-0.70704-0.37071-0.23402-1.023-0.83477-1.4492-1.3359-1.4633-1.7206-5.1653-5.4026-5.707-5.6758-0.29813-0.15036-0.75731-0.55467-1.0195-0.89844-0.26326-0.34516-0.63229-0.62696-0.82422-0.62696-0.19764 0-1.1846-0.77522-2.2871-1.7988-1.0664-0.99011-2.4661-2.1799-3.1113-2.6445-1.5515-1.1172-1.5482-1.1126-1.2207-1.4785 0.15335-0.17132 0.33289-0.67562 0.39844-1.1191 0.11559-0.78192 0.10207-0.81328-0.43359-1.0352-0.41473-0.1718-0.60302-0.17827-0.75391-0.02734-0.11053 0.11055-0.53999 0.20117-0.95508 0.20117-0.62521 0-0.87939-0.11341-1.4824-0.6582-1.3049-1.1789-1.5398-1.7195-1.5312-3.5293 4e-3 -0.87364-0.04375-1.6717-0.10547-1.7715-0.0617-0.0998-0.17603-0.76282-0.25586-1.4746-0.17924-1.5983-0.48898-2.2943-1.0586-2.375-0.23459-0.0332-0.90178-0.36882-1.4824-0.7461-0.58063-0.3773-1.2338-0.68554-1.4512-0.68554-0.21888 0-0.63482-0.2542-0.93164-0.57032l-0.53515-0.57031-0.54102 0.30469c-0.5286 0.30033-0.55031 0.29852-1.1133-0.13086-0.32328-0.2466-0.80891-0.4375-1.1113-0.4375-0.46805 0-0.60897-0.12466-1.082-0.96289-0.35494-0.6289-0.68941-1.0007-0.9668-1.0703-0.24941-0.0626-0.51447-0.32357-0.64257-0.63282-0.33063-0.79821-1.7839-1.1715-2.2715-0.58398-0.41829 0.504-0.99729 0.30416-1.7891-0.61523-0.41589-0.48294-0.85059-0.87692-0.96484-0.87696-0.11422-5e-5 -0.25274-0.14432-0.3086-0.32031-0.0558-0.176-0.43817-0.50706-0.84765-0.73438-0.40948-0.22734-0.78376-0.45957-0.83204-0.51757-0.0483-0.058-0.41665-0.36364-0.82031-0.67774-0.95073-0.73983-1.4154-1.9799-1.1426-3.0547 0.1961-0.77263 0.0802-1.2641-0.48828-2.0625-0.41034-0.57629-2.0154-1.1697-2.6992-0.99805-0.40103 0.10065-0.46875 0.20976-0.46875 0.76172 0 0.742 0.32552 2.6467 0.51954 3.0371 0.0722 0.14541 0.07262 0.38296 0 0.52734-0.0729 0.14439-0.34996 0.84619-0.61524 1.5606-0.26528 0.71437-0.64826 1.4644-0.85156 1.666-0.37908 0.3759-1.3359 2.1257-1.3359 2.4434 0 0.0974 0.85028 1.0321 1.8887 2.0762 1.0384 1.0441 2.1243 2.1393 2.4141 2.4336 0.28978 0.29432 1.5836 1.5424 2.875 2.7734 1.2914 1.2311 3.1484 3.1693 4.127 4.3086 0.9786 1.1393 2.49 2.8938 3.3594 3.8984s2.6887 2.8118 4.041 4.0156c1.3523 1.2038 3.0905 2.8107 3.8633 3.5703 2.0825 2.047 6.9004 7.1023 7.25 7.6074 0.16714 0.24148 0.59935 0.7517 0.96094 1.1328 0.36158 0.38111 0.6582 0.74559 0.6582 0.81054 0 0.0952 1.6168 2.2964 2.2598 3.0762 0.38935 0.47217 2.4168 3.6186 3.0469 4.7285 0.53049 0.93444 0.79922 1.7148 1.1191 3.25 0.23151 1.1108 0.42112 2.2363 0.42188 2.502v0.0957h278.78a39.372 39.372 0 0 0 39.371-39.371v-71.258a39.372 39.372 0 0 0-39.371-39.371h-303.26zm274.84 14.84c1.2136-0.01856 2.312 0.016942 3.2734 0.10742-9.7507 13.838-8.5057 37.194-34.051 38.27 4.0452 0.30416 7.6157 1.1423 10.676 2.5547 2.671 1.2328 4.9866 2.9687 6.9688 5.1074 0.86347 0.47706 1.7078 0.98484 2.5312 1.5293v-7.4375h17v75.102h-16.799v-0.10156-5.7773c-1.8765 1.258-3.8891 2.3503-6.0215 3.2637-0.86868 0.60204-1.7905 1.1468-2.7793 1.6152-3.8 1.8-8.6996 2.6992-14.6 2.6992-11.1 0-20.401-3.8004-27.801-11.4-7.4-7.6-11.199-16.999-11.199-28.199 0-5.3 0.89883-10.3 2.7988-15 1.9-4.7 4.5-8.9 8-12.5 1.0728-1.1598 2.1995-2.2004 3.3516-3.1777 1.3599-1.9699 2.8376-3.8781 4.4473-5.7012-7.9734-28.029 36-40.675 54.203-40.953zm-10.477 10.266c-11.897 6.8599-25.343 17.05-34.941 29.369 2.9378-0.79086 6.1126-1.2184 9.4688-1.332-0.51021-0.032747-1.0048-0.051726-1.5332-0.099609 7.8946-10.384 20.263-21.414 27.006-27.938zm59.875 4.2656c0.3 0 0.90117-3.88e-4 1.7012 0.099609 0.8 0 1.3984 0.10156 1.8984 0.10156v15.699h-1.1992c-4 0-6.8 0.70039-8.5 1.9004-1.7 1.3-2.5996 3.4-2.5996 6.5v1.4004h12.299v15.398h-12.6v59.5h-16.9v-59.5h-8.8984v-15.6h8.3984v-2c0-7.9 2.2-13.799 6.5-17.699 4.4-3.9 11-5.8008 19.9-5.8008zm-231.2 1.2012h17.1v99.398h-17.1v-99.398zm-44.637 7.6973c1.3251 0.012901 3.0248 0.27881 3.8594 0.6543 0.54654 0.24589 1.0465 0.53107 1.1094 0.63281 0.0628 0.10174 0.49742 0.18359 0.9668 0.18359 1.1263 0 1.3311 0.096208 1.7871 0.83398 0.43995 0.71186 0.54196 2.1065 0.21484 2.9434-0.11327 0.28979-0.25737 1.0401-0.31836 1.668-0.0943 0.97109-0.05985 1.205 0.23047 1.5723 0.33994 0.42993 0.33929 0.43617-0.08399 1.2715-0.3011 0.59417-0.62833 0.94293-1.123 1.1953-0.76727 0.39142-1.082 0.7986-1.4043 1.8145-0.15204 0.4791-0.45885 0.84837-1.0723 1.2891-0.78916 0.56697-0.94475 0.77238-0.8789 1.1641 0.0494 0.29354-0.90386 1.3325-1.4668 1.5996-0.55468 0.26321-1.8624 0.34099-2.6426 0.15625-0.47978-0.11361-2.3711-1.991-2.3711-2.3535 0-0.36389 0.59394-0.5305 1.4199-0.39844 0.65122 0.10414 2.0256-0.38428 2.6641-0.94727 0.43182-0.38078 0.38767-1.036-0.08789-1.3066-1.5134-0.86122-2.8962-1.054-4.9609-0.68945-0.57957 0.10235-1.4902 0.23816-2.0215 0.30078-0.53129 0.06261-1.4331 0.34218-2.0039 0.62109-0.98216 0.47987-2.3867 0.69124-2.3867 0.35938 0-0.33347-0.98723-0.55469-2.4727-0.55469-1.2706 0-1.5985-0.053724-1.6836-0.27539-0.1803-0.46987 0.18069-0.61298 1.8008-0.71289 1.6125-0.09947 3.6467-0.74314 3.8262-1.2109 0.10104-0.26342 1.3146-0.84899 2.3066-1.1133 0.38641-0.10293 1.3479-0.21641 2.1367-0.25195 0.8974-0.04043 1.5876-0.16483 1.8457-0.33398 0.2269-0.14867 0.65636-0.32502 0.95508-0.39062 0.29871-0.06563 0.83652-0.38605 1.1934-0.71289 0.57834-0.52975 0.62304-0.63414 0.42383-0.95312-0.1229-0.19681-0.42901-0.4035-0.68164-0.45898-0.47771-0.10492-1.8914 0.29963-2.543 0.72656-0.32418 0.21241-0.54624 0.20779-1.6133-0.033203-1.1963-0.27014-1.2601-0.26762-1.9531 0.085938-0.39411 0.20106-0.85836 0.36578-1.0312 0.36719-0.36106 0.0027-1.6276 0.42533-2.4668 0.82227-0.34823 0.16471-0.61691 0.44722-0.68555 0.7207-0.20028 0.79806-1.8472 2.0063-2.2227 1.6309-0.10484-0.10481-0.37158-0.18945-0.59375-0.18945-0.37686 0-0.40429-0.071943-0.40429-1.0605 0-0.78362 0.11497-1.2855 0.4414-1.9297 0.2428-0.47912 0.45065-0.93081 0.46094-1.0039 0.0763-0.54196 0.46926-1.023 1.5371-1.875 0.6767-0.53992 1.3353-0.98047 1.4648-0.98047 0.12955 0 0.50933-0.23367 0.84375-0.51953 0.33446-0.28586 0.81576-0.52342 1.0684-0.52734 0.25261-0.0037 0.65201-0.15957 0.88867-0.3457 0.66685-0.52456 2.5313-1.0298 4.2715-1.1582 0.86936-0.06416 1.9055-0.17743 2.3027-0.25 0.3127-0.05712 0.7126-0.080472 1.1543-0.076171zm19.16 2.6074c0.18061 0.083799 0.32848 0.35124 0.47656 0.82031 0.13285 0.4208 0.31834 0.86815 0.41211 0.99219 0.11149 0.1475 0.10226 0.35876-0.02344 0.61328-0.10576 0.21405-0.23255 0.94298-0.2832 1.6191-0.13178 1.76-0.36054 3.0876-0.62891 3.6445-0.32602 0.67666-1.0368 0.65558-1.5547-0.044922-0.46836-0.63351-0.65843-0.66096-0.79492-0.11719-0.13974 0.55673-1.2325 1.0448-1.5742 0.70312-0.0644-0.06443-0.11719-0.27467-0.11719-0.4668 0-0.19213-0.20186-0.6132-0.44921-0.9375-0.24736-0.3243-0.63865-1.016-0.86914-1.5371-0.23047-0.52115-0.50179-0.99962-0.60352-1.0625-0.47798-0.29541 0.23909-1.9097 1.2578-2.8301 0.56275-0.50842 0.80596-0.60498 1.5859-0.63086 0.50684-0.01679 1.1748-0.040191 1.4844-0.050781 0.32784-0.01114 0.74678-0.18996 1.002-0.42969 0.28528-0.26801 0.49907-0.36895 0.67969-0.28516zm87.877 11.795c6.5 0 12.599 1.5004 18.199 4.4004 5.6 3 10.4 7.1 14.4 12.5 2.4 3.2 4.2004 6.7985 5.4004 10.898 1.2 4 1.6992 8.6008 1.6992 13.801 0 0.4 3.9e-4 1.0004-0.09961 1.9004 0 0.9-0.09961 1.5004-0.09961 1.9004h-60.086c0.61659 5.3512 2.8082 9.6192 6.4844 12.699 3.7 3.1 8.5004 4.6992 14.4 4.6992 3.9 0 7.4-0.79844 10.5-2.3984 3.1-1.7 5.6004-3.9004 7.4004-6.9004h18.801c-3.2 8.2-7.9008 14.5-14.301 19.1-6.3 4.5-13.7 6.8008-22 6.8008-5.6 0-10.7-1-15.4-3-4.7-2-8.8992-4.9008-12.699-8.8008-3.5-3.7-6.3012-7.9008-8.2012-12.801-2-4.8-2.8984-9.7985-2.8984-14.898 0-5.2 0.89922-10.201 2.6992-14.801 1.8-4.6 4.4004-8.8 7.9004-12.5 3.8-4.1 8.2-7.2008 13-9.3008 4.8-2.2 9.8004-3.2988 14.9-3.2988zm-164.41 2.0879c1.6967 0 1.6486-0.016712 3.9883 1.4121 0.55087 0.33643 1.3804 0.68348 1.8438 0.77148 1.0352 0.19661 1.7065 0.53378 2.3477 1.1816 0.26981 0.27263 0.77742 0.77324 1.1289 1.1113 0.62914 0.60515 0.8585 0.99984 1.0723 1.8516 0.14301 0.56983-0.21627 0.56879-1.2949-0.005859-1.0132-0.53937-1.3658-0.342-1.1777 0.66016 0.15504 0.82648 0.67164 1.3574 1.3203 1.3574 0.46225 0 0.51954 0.05865 0.51954 0.5332 0 0.29364 0.15688 0.8429 0.34961 1.2207 0.30169 0.59133 0.33677 0.9021 0.24609 2.2324-0.0579 0.84996-0.1168 1.8374-0.13086 2.1953-0.0166 0.42232-0.14901 0.74573-0.37695 0.91992-0.34781 0.26576-0.34763 0.27034 0.05273 0.38281 0.34115 0.09584 0.39639 0.21177 0.35156 0.74805-0.0412 0.49274-0.12309 0.62398-0.36132 0.58398-0.53855-0.09044-0.33334 0.20611 0.74804 1.0801 0.62025 0.50129 1.0527 0.98861 1.0527 1.1855 0 0.40775-0.17207 0.40321-1.4024-0.033203-1.1392-0.40417-2.5159-1.6402-2.3633-2.1211 0.0538-0.16934 0.00548-0.47922-0.10547-0.6875-0.17668-0.33014-0.296-0.3635-0.93164-0.25586-0.401 0.0679-1.0057 0.16116-1.3438 0.20703-0.62074 0.08424-1.9298 0.69214-2.1289 0.98828-0.17141 0.25504-2.0996-0.049313-2.2148-0.34961-0.0547-0.14255 0.00547-0.32484 0.13477-0.4043 0.19439-0.12014 0.19375-0.26552-0.00391-0.86523-0.18172-0.55066-0.19002-0.77085-0.0332-0.92774 0.11301-0.11301 0.20703-0.66737 0.20703-1.2324 0-0.59794 0.11777-1.2627 0.2832-1.5898 0.33349-0.65954 1.1911-1.4949 1.959-1.9082 0.31419-0.16909 0.69697-0.6098 0.90625-1.043 0.59496-1.2314 0.47243-1.7604-0.5293-2.2715-0.84498-0.43107-0.95263-0.42944-1.5996 0.03125-0.49751 0.35427-0.56127 0.35911-1.1055 0.09961-0.48618-0.23184-0.61003-0.42121-0.79492-1.209-0.40597-1.7296-0.70707-1.9273-1.4863-0.97852-0.44322 0.53961-0.70668 0.90724-1.7539 2.4512-0.51982 0.76639-1.1775 1.194-1.2949 0.8418-0.0414-0.12412-0.36128-0.54229-0.71093-0.92969-0.63274-0.70108-0.63539-0.71181-0.60938-2.2148 0.0316-1.8284 0.29682-2.514 1.3496-3.4844 1.3554-1.2493 2.081-1.5352 3.8926-1.5352zm64.58 5.3145c0.58732-0.084329 0.69671 0.31197 0.03711 0.93164-0.24903 0.23394-0.73329 0.88936-1.0781 1.457-0.57526 0.94697-0.62442 1.1313-0.5918 2.248 0.0279 0.95597 0.11497 1.3092 0.40821 1.6465 0.42219 0.48557 0.65274 0.52089 1.4883 0.21875 0.45564-0.16476 0.71183-0.16582 1.1406-0.003906 0.40945 0.15455 0.6134 0.15747 0.78907 0.011719 0.13048-0.10829 0.28838-0.14712 0.34961-0.085938 0.0613 0.06124 0.20345 0.035136 0.3164-0.058594 0.11294-0.093738 0.76129-0.24925 1.4414-0.3457 1.2829-0.18195 1.8909-0.084494 3.7207 0.59766 0.78198 0.29152 2.199 0.23256 2.4043-0.09961 0.13231-0.21408 1.7859-0.19735 1.9199 0.019531 0.0597 0.0966 0.48636 0.17578 0.94922 0.17578s1.0845 0.086137 1.3809 0.18945c0.34801 0.12132 0.74712 0.13073 1.125 0.027344 0.3218-0.08808 0.68395-0.12706 0.80469-0.085938 0.69589 0.23678-0.29869 2.3738-1.6016 3.4414-1.0531 0.86292-1.2219 1.6005-0.62109 2.7324 0.36162 0.68122 0.42044 1.031 0.41406 2.4707-0.0106 2.3549-0.23059 4.1489-0.64648 5.2754-0.19615 0.53127-0.41086 1.5289-0.47852 2.2168-0.0884 0.89816-0.23521 1.3928-0.51953 1.7559-0.47799 0.61036-1.8029 1.6841-2.6621 2.1562-0.74317 0.40837-0.98233 0.672-1.582 1.752-0.48787 0.87857-0.91797 1.0336-2.0078 0.72266-0.28978-0.08269-0.8719-0.23767-1.2949-0.34375-0.42305-0.1061-0.91752-0.27077-1.0977-0.36719-0.18016-0.09642-1.0195-0.24562-1.8652-0.33008-0.84574-0.08442-2.4854-0.32549-3.6445-0.53711-1.1592-0.21161-2.2262-0.38463-2.3711-0.38281-0.1449 0.0018-0.42206-0.061485-0.61523-0.14258-0.19319-0.08114-1.0227-0.31696-1.8438-0.52344-0.82107-0.20648-1.8412-0.58057-2.2676-0.83008-0.4848-0.28364-1.1096-0.4737-1.668-0.50976-1.7948-0.11592-2.5742-0.34382-3.0117-0.87891-0.46626-0.57022-0.51271-0.8146-0.24414-1.3164 0.24153-0.45129 0.06254-0.99003-0.375-1.1289-0.59537-0.18896-0.99131-1.1444-1.0332-2.4922-3e-3 -0.11738-0.23829-0.47627-0.52149-0.79883-0.2832-0.32255-0.56606-0.81898-0.6289-1.1035-0.0628-0.28453-0.27076-0.92341-0.46289-1.4199-0.48046-1.2416-0.38767-2.0058 0.28906-2.3555 1.2349-0.63812 2.3711-1.4449 2.3711-1.6836 0-0.1414-0.12511-0.50068-0.2793-0.79883-0.22744-0.43984-0.24021-0.61833-0.06835-0.93945 0.22956-0.42897 0.86687-0.78516 1.4043-0.78516 0.18542 0 0.73268-0.35106 1.2148-0.7793 0.48217-0.42824 1.1747-0.91048 1.541-1.0723 0.36626-0.16179 0.93165-0.42343 1.2559-0.58203 0.8542-0.41788 3.1357-2.4029 3.4414-2.9941 0.14373-0.27792 0.56718-0.73163 0.9414-1.0078 0.37423-0.27618 1.0824-0.9847 1.5723-1.5742 0.5003-0.60215 1.2133-1.2309 1.627-1.4355 0.29122-0.14408 0.53861-0.2258 0.73438-0.25391zm-3.6094 8.1699c-0.43737-0.029532-0.82127 0.32282-1.1934 1.0527-0.20763 0.4073-0.71054 1.0325-1.1172 1.3906-0.63704 0.56115-0.75409 0.77538-0.84571 1.5488-0.11234 0.9486-0.47487 1.653-1.5625 3.041-1.034 1.3196-0.88302 1.9164 0.52735 2.0957 0.95581 0.12148 1.2656 0.38422 1.2656 1.0664 0 0.41026-0.19948 0.74477-0.81445 1.3691-1.0076 1.023-0.96812 1.4771 0.11328 1.332 0.38297-0.05139 1.0331-0.2527 1.4453-0.44726 0.41217-0.19455 0.94798-0.35248 1.1894-0.35156 0.50676 0.0018 2.0001-0.63199 2.6133-1.1094 0.24441-0.19029 0.70413-0.32617 1.1035-0.32617 0.37649 0 0.96354-0.11723 1.3047-0.25976 0.34113-0.14253 0.95333-0.24432 1.3613-0.22656 1.5276 0.06645 3.0126-1.2988 2.8047-2.5801-0.0705-0.43429 0.00646-0.64369 0.36329-0.98242 0.49081-0.46582 0.56679-0.86644 0.26953-1.4219-0.21917-0.40952-1.1726-0.85156-1.8359-0.85156-0.25078 0-0.86625-0.1865-1.3672-0.41406-0.50094-0.22756-1.2125-0.46914-1.582-0.53711-0.8107-0.14914-1.4719-0.7126-2.5312-2.1543-0.58379-0.79445-1.0743-1.2048-1.5117-1.2344zm103.44 0.52734c-4.7 0-8.8 1.3992-12.5 4.1992-3.7 2.8-6.2 6.5016-7.5 11.102h40.799c-1.5-5-4-8.8004-7.5-11.4-3.5-2.6-7.9988-3.9004-13.299-3.9004zm85.898 1.5996c-5.6144 0-10.404 1.9255-14.475 5.6426-2.1302 2.1072-3.9228 4.6278-5.1914 7.5117 0.02388-0.17835 0.05909-0.3599 0.08594-0.53906-1.1995 2.6658-1.8184 5.5787-1.8184 8.7852 0 6.3 2.0988 11.6 6.2988 15.9 4.2 4.3 9.3004 6.4004 15.4 6.4004 5.5 0 10.3-2.1004 14.5-6.4004 4.2-4.3 6.3008-9.3 6.3008-15 0-6.1-2.1008-11.301-6.3008-15.701-4.2-4.4-9.1008-6.5996-14.801-6.5996zm-178.96 6.1035c-0.29157 0.031665-0.60273 0.17675-0.93946 0.43359-1.067 0.81386-0.64509 1.4818 1.1504 1.8223 0.51826 0.09829 0.98166 0.21801 1.0293 0.26562 0.1749 0.17491 0.51711 0.075252 1.0996-0.31641 1.1006-0.73991 0.79192-1.7051-0.54492-1.7051-0.34946 0-0.78905-0.11599-0.97656-0.25781-0.25467-0.19262-0.52679-0.27385-0.81836-0.24219zm-4.2188 5.5176c-0.1821-0.08123-0.81249 0.019032-1.5664 0.24805-1.0922 0.33175-1.3621 0.35493-2.002 0.17578-0.83192-0.23292-1.2782-0.086603-1.7383 0.57031-0.78435 1.1198 0.22866 1.7346 2.2715 1.3789 1.5531-0.27046 2.2038-0.23851 3.7383 0.18555 0.74685 0.20638 1.5478 0.36485 1.7793 0.35156 0.23149-0.01332 0.50936 0.047188 0.61719 0.13672 0.31634 0.26253 2.6916 0.4437 3.3848 0.25781 0.55135-0.14787 0.61457-0.49092 0.24805-1.3398-0.49367-1.1435-0.79218-1.322-2.3887-1.4277-2.0016-0.13261-3.9879-0.3783-4.3438-0.53711z" fill="#fff" stroke-dasharray="10.0142, 10.0142" stroke-width="1.669"/></g><style>.st0{filter:url(#Adobe_OpacityMaskFilter);} .st1{fill:#FFFFFF;} .st2{mask:url(#a);fill:#FFFFFF;}</style><style>.st0{filter:url(#Adobe_OpacityMaskFilter);} .st1{fill:#FFFFFF;} .st2{mask:url(#a);fill:#FFFFFF;}</style></svg>
