<?xml version="1.0" encoding="UTF-8"?>
<svg enable-background="new 0 0 542 157" version="1.1" viewBox="0 0 382.14 155.5" xml:space="preserve" xmlns="http://www.w3.org/2000/svg"><defs><mask id="a" x="0" y=".3" width="299.2" height="156.7" maskUnits="userSpaceOnUse"><g class="st0"><path class="st1" d="m299.2 156.9h-299.1v-156.6h299.1z"/></g></mask></defs><style>.st0{filter:url(#Adobe_OpacityMaskFilter);} .st1{fill:#FFFFFF;} .st2{mask:url(#a);fill:#FFFFFF;}</style><g transform="translate(-96.803 -1.1987)" fill="#fff"><path d="m96.803 1.1987v155.5h8.0078l6e-3 -14.039 4e-3 -14.039 0.99804-0.73242c1.2846-0.94393 3.2295-2.1964 5.3965-3.4746 2.2569-1.3313 2.803-1.7022 3.6719-2.4922 0.39869-0.36246 1.3216-1.1744 2.0488-1.8047 1.9378-1.6796 4.3327-4.4462 4.9727-5.7441 0.30725-0.62315 0.72605-1.3217 0.93164-1.5527 0.21781-0.24479 0.32396-0.55196 0.2539-0.73437-0.0795-0.20694 0.17117-0.65289 0.74024-1.3184 0.47348-0.55372 0.86133-1.1724 0.86133-1.373 0-1.0449 2.7654-3.98 5.4707-5.8066 1.2433-0.83944 1.9764-1.4654 2.0527-1.75 0.17024-0.63508 0.15138-1.2562-0.0508-1.6387-0.0964-0.18246-0.28272-0.62-0.41406-0.97266-0.2449-0.65759-2.3653-2.9617-3.252-3.5332l-0.4961-0.31836-0.14843-4.0586c-0.0814-2.2315-0.12906-5.917-0.10743-8.1914 0.0423-4.4493-0.12329-5.762-1.0664-8.4375-0.25219-0.71547-0.45899-1.5497-0.45899-1.8535 0-0.98446-0.42338-2.3665-1.8164-5.9199-0.69538-1.7738-1.3941-4.3621-1.7168-6.3711-0.0482-0.30013-0.16949-0.64676-0.27148-0.76953-0.10198-0.12277-0.23965-0.69429-0.30469-1.2695-0.12806-1.1325-0.20524-1.502-0.97461-4.6738-0.50377-2.0768-0.50888-2.1809-0.49805-8.7891 9e-3 -5.4517 0.0658-6.8796 0.3086-7.7363 0.16382-0.57786 0.30302-1.5237 0.31054-2.1016 8e-3 -0.57788 0.0949-1.4805 0.19336-2.0059 0.0985-0.52533 0.25785-1.428 0.35352-2.0059 0.0957-0.57786 0.39704-1.7111 0.66992-2.5176 0.2729-0.80654 0.49609-1.6315 0.49609-1.834 0-0.76682 0.92964-2.8782 2.0488-4.6523 0.63892-1.0128 1.2141-2.0061 1.2773-2.2051 0.0632-0.19898 0.37581-0.51456 0.69532-0.70312 0.31951-0.18856 0.80533-0.70232 1.0801-1.1406 0.27475-0.43831 0.55686-0.84004 0.62695-0.89258 0.0701-0.05251 0.3944-0.48228 0.71875-0.95508 0.32434-0.47281 0.86497-1.1164 1.2031-1.4316 0.33816-0.3152 1.2371-1.351 1.998-2.3008 1.4376-1.7944 1.8099-2.0515 4.7871-3.3223 0.52582-0.22443 1.4565-0.66318 2.0684-0.97461 0.61188-0.31144 1.2838-0.56641 1.4922-0.56641 0.20839 0 0.62936-0.12892 0.93554-0.28711 0.69133-0.35716 3.0279-0.85916 4.084-0.87695 1.0262-0.017274 3.8033-0.49687 4.9004-0.8457 0.47324-0.15047 1.4631-0.35298 2.1992-0.45117 0.73616-0.098184 2.1552-0.3656 3.1543-0.59375s2.2906-0.47652 2.8691-0.55078c0.57851-0.074258 1.151-0.19588 1.2734-0.27148 0.1237-0.076343 0.49069 0.087077 0.82617 0.36914 0.59041 0.49634 0.61891 0.50199 1.2129 0.18945 0.3341-0.17579 0.88875-0.5269 1.2344-0.7793 0.63479-0.46355 2.0829-0.86914 3.0996-0.86914 0.30412 0 0.6015-0.07969 0.66211-0.17773 0.0606-0.097985 0.34543-0.1773 0.63281-0.17578 0.28737 0.00199 0.90956-0.083131 1.3828-0.1875 0.47324-0.10442 1.3768-0.28935 2.0078-0.41016 0.63099-0.12082 1.5144-0.29986 1.9629-0.39844 0.44846-0.098581 1.3776-0.17969 2.0644-0.17969zm79.918 0-0.11914 0.63281c-0.0788 0.41956-0.0333 0.70355 0.13476 0.83984 0.25417 0.20612 3.0663 1.6435 4.416 2.2578 0.64602 0.29401 1.1401 1.0652 0.86133 1.3438-0.20979 0.20959-5.9906-0.55547-6.3164-0.83594-0.30407-0.26173-0.3794-0.2485-0.77734 0.125-0.38723 0.36345-0.65833 0.41309-2.2442 0.41406-0.99228 6.057e-4 -2.3038 0.083454-2.916 0.18359-1.4814 0.24239-4.6946 1.4543-5.293 1.9961-0.26291 0.23807-0.93931 0.70922-1.502 1.0469-2.056 1.2338-2.9401 2.535-3.1172 4.5879-0.0688 0.79739-0.18592 1.6815-0.25977 1.9648-0.0981 0.3763-0.0219 0.67125 0.2793 1.0938 0.44959 0.63081 0.3777 0.96193-0.35351 1.623-0.30062 0.27181-0.4004 0.59129-0.4004 1.2832 0 0.58412-0.14071 1.1482-0.38281 1.5449-0.48959 0.80227-0.48464 0.84362 0.14258 1.1426 0.59898 0.28549 0.78152 1.0264 0.41797 1.7051-0.19673 0.36726-0.16911 0.47658 0.20508 0.7793 0.23899 0.19334 0.58241 0.30358 0.76367 0.24609 0.35565-0.11277 2.4863 1.5341 2.4863 1.9219 0 0.11868-0.1725 0.37233-0.38282 0.5625-0.58752 0.53122-0.48306 1.3202 0.28711 2.1719 0.36808 0.40704 0.66797 0.83543 0.66797 0.95312 0 0.11769-0.28338 0.58622-0.63086 1.041-0.34748 0.45479-0.74884 1.1072-0.89062 1.4492-0.23981 0.5784-0.22417 0.65136 0.20312 1.0547 0.55036 0.5195 2.1031 1.1197 2.502 0.9668 0.15657-0.06006 0.39865 0.02664 0.53711 0.19336 0.21475 0.25851 0.16712 0.39506-0.32813 0.91797-0.78876 0.83283-1.0098 1.3128-1.0098 2.2012 0 0.58946 0.12783 0.87872 0.58593 1.3262 0.56983 0.5566 0.57894 0.59066 0.31055 1.2324-0.1518 0.36295-0.52228 0.84564-0.82422 1.0723-1.053 0.79037-1.0726 0.82093-0.95703 1.543 0.0819 0.51132-0.0124 0.94075-0.35742 1.6445-0.4755 0.97012-0.66064 2.8232-0.30469 3.043 0.0953 0.05883 0.12775 0.28031 0.0723 0.49219-0.0609 0.23257 0.0978 0.68578 0.40039 1.1426 0.27567 0.41617 0.50195 0.85698 0.50195 0.98047 0 0.12349-0.31218 0.77955-0.69141 1.457l-0.68945 1.2324-0.99805-0.125c-1.3268-0.16562-1.825 0.21033-1.9688 1.4844-0.1969 1.7452-1.2759 2.0101-3.5566 0.875-0.61377-0.30546-1.3935-0.55469-1.7324-0.55469-0.3626 0-1.0645-0.26891-1.7051-0.6543-2.2378-1.3463-5.1168-2.5672-6.4414-2.7305-0.36808-0.04538-1.0129-0.24165-1.4336-0.43555-1.045-0.48169-3.4005-1.3379-3.6797-1.3379-0.12529 0-0.51012 0.11954-0.85547 0.26562s-1.1143 0.35395-1.709 0.46289c-1.8049 0.33061-3.0818 1.0318-4.0156 2.2012-0.45668 0.5719-1.0658 1.181-1.3535 1.3555-0.39424 0.23912-0.61672 0.63282-0.90234 1.5977-0.33152 1.1199-0.71911 3.5854-0.74219 4.7188-4e-3 0.21014-0.0692 0.79735-0.14258 1.3027-0.0799 0.55036-0.0507 1.0854 0.0723 1.3359 0.11301 0.23009 0.23696 0.93405 0.27539 1.5645 0.073 1.198 0.50542 2.2696 1.7715 4.3945 0.37561 0.6304 0.81685 1.4467 0.98242 1.8145 0.74746 1.6601 0.95565 1.9687 1.9805 2.9453 0.59872 0.57055 1.3782 1.4953 1.7305 2.0547 1.3254 2.1045 2.7834 3.9195 4.0176 5 1.5354 1.3442 3.4389 2.5802 4.4824 2.9102 0.9344 0.29542 3.1278 1.166 3.582 1.4219 1.0314 0.58085 3.1806-0.17952 3.8066-1.3457 0.72371-1.3482 2.0019-2.2891 3.1094-2.2891 0.40288 0 0.4974 0.12085 0.63867 0.8125 0.14498 0.70982 0.22465 0.80499 0.63281 0.76172 0.26113-0.02769 0.70728-0.3419 1.0117-0.71484 0.29935-0.36672 0.61221-0.62552 0.69531-0.57422 0.0831 0.05132 0.25086-0.0267 0.37305-0.17383 0.13633-0.16411 0.15179-0.31131 0.0391-0.38086-0.11578-0.07148-0.10923-0.31342 0.0195-0.6543 0.18159-0.48064 0.29721-0.54102 1.0469-0.54102 0.77455 0 0.87208 0.05655 1.1934 0.68555 0.19231 0.37649 0.72347 1.0325 1.1816 1.459 0.45817 0.42649 0.92492 0.93787 1.0371 1.1348 0.19677 0.34534 0.2187 0.34342 0.61719-0.05469 0.22721-0.227 0.3662-0.53554 0.30859-0.68555-0.22149-0.57664 2.3988-0.70512 4.9902-0.24414 1.1182 0.19892 1.328 0.29581 1.2773 0.58398-0.0382 0.21714 0.0203 0.29492 0.15625 0.21094 0.11883-0.07336 0.38606 0.01926 0.59375 0.20703 0.27822 0.25154 0.34481 0.48318 0.25781 0.87891-0.0909 0.41356-0.0369 0.56664 0.23242 0.66602 0.19242 0.07098 0.63947 0.34686 0.99414 0.61328 0.50047 0.37595 0.84455 0.47746 1.5312 0.44922 1.0051-0.0414 1.3013 0.09311 1.623 0.74023 0.12457 0.25059 0.41836 0.484 0.65234 0.51758 0.2914 0.04179 0.42579 0.19248 0.42579 0.47852 0 0.24372 0.27739 0.64925 0.66796 0.97461 0.36807 0.30661 0.66993 0.71221 0.66993 0.90039 0 0.37825 0.66435 0.8206 0.95898 0.63867 0.31026-0.19157 0.2133-0.64666-0.19336-0.90039-0.47665-0.2974-0.48998-0.75502-0.0332-1.168 0.73855-0.66776 1.6346-0.19523 1.8711 0.98633 0.0833 0.41575 0.23143 0.60742 0.46875 0.60742 0.19098 0 0.40082 0.08669 0.4668 0.19336 0.23902 0.38637 1.5028 0.76172 2.5664 0.76172 0.63889 0 1.2409 0.11179 1.459 0.27148 0.21793 0.15959 0.58802 0.22935 0.89648 0.16797 0.29082-0.05788 0.65289 1.34e-4 0.81055 0.13086 0.40449 0.33539 1.0366 0.12224 1.9492-0.6582 1.1368-0.97216 2.3654-0.89631 2.1953 0.13672-0.0305 0.18494 0.12283 0.56564 0.3418 0.84375 0.2246 0.28526 0.35122 0.6503 0.29101 0.83984-0.0587 0.18478-0.0176 0.39141 0.0918 0.45898 0.10944 0.06761 0.19922 0.33338 0.19922 0.58984 0 0.27122 0.11265 0.4668 0.26758 0.4668 0.3422 0 0.56839 0.57833 0.32226 0.82422-0.1239 0.12379-0.12342 0.31193 4e-3 0.54883 0.14625 0.27302 0.0985 0.51575-0.20117 1-0.21754 0.35166-0.34616 0.77086-0.28516 0.92969 0.061 0.15882 0.0185 0.3447-0.0937 0.41406-0.31782 0.19625-0.23997 0.67652 0.13086 0.80859 0.18403 0.06552 0.45306 0.20975 0.59766 0.32227 0.14462 0.11253 0.50308 0.17922 0.79687 0.14844 0.43401-0.04547 0.62627 0.0802 1.0274 0.66992 0.27147 0.39915 0.4958 0.89931 0.49804 1.1113 5e-3 0.46564 1.414 1.5198 1.8223 1.3633 0.15531-0.0595 0.36581-0.32448 0.4668-0.58984 0.2388-0.62752 0.76562-0.64003 0.76562-0.0176 0 0.25648-0.0766 0.51538-0.17187 0.57422-0.0953 0.0588-0.1292 0.27824-0.0742 0.48828 0.11234 0.42923 0.56961 0.488 1.2812 0.16406 0.70865-0.32258 1.341 0.17216 1.7344 1.3555 0.38795 1.1669 1.0428 1.7285 2.0137 1.7285 0.85229 0 2.0755 0.4732 2.2246 0.86133 0.13772 0.35855 1.3014 0.67827 1.9785 0.54296 0.29285-0.0584 0.58607-0.0111 0.6582 0.10547 0.19012 0.30732 0.81348 0.25489 0.94141-0.0781 0.0605-0.15759 0.28443-0.28516 0.49805-0.28516 0.25702 0 0.38867-0.12576 0.38867-0.37109 0-0.45012 0.24418-0.62524 0.65234-0.46875 0.18314 0.0702 0.30469 0.34121 0.30469 0.68164 0 0.31087 0.0963 0.74561 0.21484 0.9668 0.17602 0.32858 0.15199 0.4482-0.13281 0.65625-0.27828 0.2033-0.30159 0.30407-0.11133 0.49414 0.13106 0.13094 0.29944 0.24306 0.37305 0.25 0.0736 7e-3 0.43465 0.14538 0.80273 0.30859 1.5413 0.68344 2.1234 0.8058 4.3984 0.91602 1.3146 0.0637 2.5406 0.1856 2.7246 0.27148 0.34179 0.15948 0.44942 0.69926 0.19141 0.96094-0.0789 0.08-0.14454 0.45659-0.14454 0.83789 0 0.58155-0.091 0.73885-0.57226 0.9707-1.5592 0.75119-6.2293 4.4026-9.1582 7.1621-0.51413 0.48439-1.0337 0.88086-1.1562 0.88086-0.12251 0-0.52041 0.30924-0.88282 0.6875-0.36242 0.37826-1.4324 1.3399-2.3789 2.1367-0.94648 0.79684-1.7843 1.5522-1.8613 1.6777-0.077 0.12553-0.98056 0.87144-2.0078 1.6582-1.0272 0.78676-2.9864 2.549-4.3535 3.916-1.3672 1.3671-2.7428 2.6158-3.0586 2.7754s-0.74163 0.47435-0.94532 0.69922c-0.27886 0.30785-0.5023 0.37966-0.90625 0.29102-0.44485-0.0976-0.56723-0.0399-0.71093 0.33789-0.0973 0.25558-0.10325 0.82817-0.0156 1.3047 0.11926 0.64878 0.0927 0.88391-0.10937 0.99804-0.29583 0.16709-0.70123 0.99675-1.0488 2.1445-0.34651 1.1442-1.3819 2.7497-2.4394 3.7852-0.85518 0.83733-1.0002 0.90931-1.5898 0.79492-0.49835-0.0967-0.77915-0.32912-1.2148-1.0078-0.3119-0.48588-0.80683-1.1571-1.0996-1.4902-0.29279-0.33316-0.5332-0.74343-0.5332-0.9121 0-0.16868-0.32883-0.51498-0.73243-0.76954-0.4036-0.25454-1.1141-0.90803-1.5781-1.4531-1.5931-1.8716-5.625-5.8767-6.2148-6.1738-0.32458-0.16353-0.82196-0.60263-1.1074-0.97656-0.28663-0.37543-0.68947-0.68164-0.89843-0.68164-0.21517 0-1.288-0.84367-2.4883-1.957-1.161-1.0769-2.6862-2.3716-3.3887-2.877-1.6891-1.2152-1.6847-1.2094-1.3281-1.6074 0.16695-0.18635 0.36223-0.73439 0.43359-1.2168 0.12583-0.85048 0.11051-0.88365-0.47265-1.125-0.45153-0.18686-0.65604-0.19535-0.82032-0.0312-0.12035 0.12025-0.58716 0.21875-1.0391 0.21875-0.68068 0-0.9587-0.12228-1.6152-0.71484-1.4206-1.2823-1.6773-1.8713-1.668-3.8398 5e-3 -0.95026-0.0461-1.8172-0.11328-1.9258-0.0672-0.10856-0.19239-0.83127-0.2793-1.6055-0.19515-1.7385-0.53221-2.4942-1.1523-2.582-0.25539-0.0362-0.9831-0.40213-1.6152-0.8125-0.63214-0.41038-1.3414-0.7461-1.5781-0.7461-0.2383 0-0.69247-0.27725-1.0156-0.62109l-0.58203-0.61914-0.58789 0.33203c-0.57549 0.32667-0.59999 0.32447-1.2129-0.14258-0.35198-0.26823-0.88169-0.47656-1.2109-0.47656-0.50957 0-0.66076-0.13515-1.1758-1.0469-0.38642-0.68407-0.75268-1.0883-1.0547-1.1641-0.27154-0.0681-0.55976-0.35114-0.69922-0.6875-0.35996-0.86822-1.9418-1.2758-2.4726-0.63672-0.45539 0.54821-1.0872 0.33205-1.9492-0.66797-0.45278-0.52529-0.92446-0.95502-1.0488-0.95507s-0.27513-0.15623-0.33594-0.34766c-0.0608-0.19142-0.47606-0.55156-0.92187-0.79883-0.4458-0.24727-0.85368-0.49942-0.90625-0.5625-0.0526-0.063-0.45507-0.39465-0.89453-0.73633-1.0351-0.80471-1.5392-2.1551-1.2422-3.3242 0.21351-0.84039 0.0857-1.3757-0.5332-2.2441-0.44676-0.62683-2.195-1.2726-2.9395-1.0859-0.4366 0.10947-0.50976 0.22971-0.50976 0.83008 0 0.80707 0.35517 2.88 0.5664 3.3047 0.0787 0.15816 0.0791 0.41522 0 0.57227-0.0794 0.15704-0.3811 0.92027-0.66992 1.6973-0.28881 0.77703-0.7064 1.5932-0.92773 1.8125-0.41271 0.40889-1.4531 2.3127-1.4531 2.6582 0 0.106 0.92417 1.1222 2.0547 2.2578 1.1305 1.1357 2.3134 2.3264 2.6289 2.6465 0.31549 0.32011 1.7249 1.6766 3.1309 3.0156 1.406 1.339 3.4268 3.4483 4.4922 4.6875 1.0654 1.2392 2.7117 3.1474 3.6582 4.2402 0.94649 1.0928 2.9261 3.0597 4.3984 4.3691 1.4723 1.3094 3.3657 3.0566 4.207 3.8828 2.2672 2.2265 7.5119 7.7259 7.8926 8.2754 0.18196 0.26266 0.65321 0.81593 1.0469 1.2305 0.39366 0.41455 0.71679 0.81216 0.71679 0.88282 0 0.10364 1.7609 2.4975 2.4609 3.3457 0.42387 0.51359 2.6304 3.9353 3.3164 5.1426 0.57755 1.0164 0.87043 1.8654 1.2188 3.5352 0.25203 1.2083 0.45815 2.4318 0.45898 2.7207v0.52539h60.219v-155.5zm23.92 33.551c1.4426 0.01403 3.2925 0.30252 4.2012 0.71094 0.59503 0.26745 1.1386 0.57684 1.207 0.6875 0.0685 0.11066 0.54172 0.20117 1.0527 0.20117 1.2262 0 1.4489 0.10377 1.9453 0.90625 0.47898 0.77429 0.59052 2.2909 0.23437 3.2012-0.12332 0.3152-0.27929 1.1315-0.3457 1.8145-0.10271 1.0563-0.0662 1.3115 0.25 1.7109 0.37008 0.46764 0.37095 0.47425-0.0898 1.3828-0.3278 0.64628-0.686 1.0243-1.2246 1.2988-0.83532 0.42575-1.1764 0.86966-1.5274 1.9746-0.16552 0.52112-0.50209 0.923-1.1699 1.4023-0.85918 0.61669-1.0268 0.8396-0.95508 1.2656 0.0538 0.31928-0.98477 1.4497-1.5976 1.7402-0.60389 0.2863-2.0276 0.37086-2.877 0.16992-0.52232-0.12356-2.5801-2.1643-2.5801-2.5586 0-0.3958 0.64569-0.57724 1.5449-0.43359 0.709 0.11326 2.2053-0.41889 2.9004-1.0312 0.47014-0.41417 0.42206-1.1275-0.0957-1.4219-1.6477-0.93676-3.1545-1.1446-5.4024-0.74805-0.63099 0.11132-1.6208 0.25805-2.1992 0.32617-0.57841 0.06813-1.5601 0.37045-2.1816 0.67383-1.0693 0.52196-2.5976 0.75355-2.5976 0.39258 0-0.36271-1.0742-0.60352-2.6914-0.60352-1.3834 0-1.7414-0.05969-1.834-0.30078-0.19629-0.51107 0.19713-0.66671 1.9609-0.77539 1.7556-0.10818 3.9686-0.80759 4.1641-1.3164 0.11005-0.28652 1.4317-0.92347 2.5117-1.2109 0.42067-0.11197 1.4674-0.23478 2.3262-0.27344 0.97702-0.04399 1.7287-0.18125 2.0098-0.36523 0.24703-0.16171 0.71581-0.35247 1.041-0.42383 0.32522-0.07135 0.90838-0.41988 1.2969-0.77539 0.62966-0.57621 0.67977-0.6882 0.46289-1.0352-0.13381-0.21407-0.46713-0.43965-0.74218-0.5-0.52006-0.11412-2.0602 0.32469-2.7695 0.78906-0.35292 0.23104-0.59416 0.22698-1.7559-0.03516-1.3024-0.29384-1.3724-0.29082-2.127 0.09375-0.42907 0.21869-0.93286 0.39886-1.1211 0.40039-0.39308 3e-3 -1.7739 0.46278-2.6875 0.89453-0.3791 0.17915-0.67137 0.48574-0.7461 0.7832-0.21807 0.86805-2.0092 2.1818-2.418 1.7734-0.11411-0.11401-0.40656-0.20703-0.64844-0.20703-0.41031 0-0.43946-0.07705-0.43946-1.1523 0-0.85234 0.12506-1.3989 0.48047-2.0996 0.26433-0.52114 0.49077-1.0123 0.50196-1.0918 0.083-0.58949 0.51127-1.1123 1.6738-2.0391 0.73672-0.58728 1.4547-1.0684 1.5957-1.0684 0.14104 0 0.55387-0.25352 0.91797-0.56445 0.36411-0.31093 0.88709-0.568 1.1621-0.57227 0.27502-4e-3 0.71112-0.17449 0.96875-0.37695 0.72604-0.57057 2.7559-1.1201 4.6504-1.2598 0.94648-0.0698 2.0734-0.1906 2.5059-0.26953 0.34043-0.06213 0.77693-0.08866 1.2578-0.08398zm20.859 2.8359c0.19664 0.09115 0.35636 0.38236 0.51758 0.89258 0.14463 0.4577 0.34715 0.94321 0.44922 1.0781 0.12138 0.16043 0.11157 0.39113-0.0254 0.66797-0.11514 0.23282-0.25346 1.0243-0.30859 1.7598-0.14349 1.9143-0.39339 3.359-0.68555 3.9648-0.35494 0.736-1.1276 0.71312-1.6914-0.04883-0.50993-0.68907-0.71663-0.71842-0.86523-0.12695-0.15212 0.60555-1.3428 1.1353-1.7148 0.76367-0.0702-0.07005-0.12695-0.29689-0.12695-0.50586 0-0.20897-0.22093-0.66874-0.49023-1.0215s-0.69439-1.105-0.94532-1.6719c-0.25091-0.56685-0.54744-1.0879-0.6582-1.1562-0.52038-0.32132 0.26199-2.077 1.3711-3.0781 0.61266-0.553 0.87738-0.6574 1.7266-0.68555 0.55181-0.01826 1.2802-0.04317 1.6172-0.05469 0.35693-0.01211 0.812-0.20799 1.0898-0.46875 0.31059-0.29152 0.54359-0.39974 0.74023-0.30859zm-83.326 15.1c1.8472 0 1.7946-0.019 4.3418 1.5352 0.59974 0.36593 1.5033 0.74412 2.0078 0.83984 1.1271 0.21385 1.8567 0.58048 2.5547 1.2852 0.29373 0.29654 0.8478 0.84125 1.2305 1.209 0.68495 0.65822 0.93328 1.0873 1.166 2.0137 0.1557 0.61981-0.23386 0.61873-1.4082-0.0059-1.1031-0.58667-1.4879-0.37129-1.2832 0.71875 0.1688 0.89897 0.73128 1.4766 1.4375 1.4766 0.50326 0 0.5664 0.0639 0.5664 0.58008 0 0.31939 0.17103 0.91719 0.38086 1.3281 0.32844 0.64319 0.36632 0.98074 0.26758 2.4277-0.0631 0.92449-0.12728 1.9994-0.14258 2.3887-0.0181 0.45936-0.16198 0.81053-0.41015 1-0.37864 0.28907-0.37922 0.29368 0.0566 0.41602 0.37141 0.10424 0.43162 0.23114 0.38281 0.81445-0.0448 0.53596-0.13322 0.67828-0.39258 0.63477-0.58633-0.09835-0.36285 0.22321 0.81445 1.1738 0.6753 0.54526 1.1465 1.0749 1.1465 1.2891 0 0.4435-0.18598 0.4396-1.5254-0.03516-1.2402-0.43961-2.7424-1.7855-2.5762-2.3086 0.0585-0.18419 8e-3 -0.51954-0.11329-0.74609-0.19236-0.3591-0.32165-0.39441-1.0137-0.27734-0.43658 0.07385-1.0948 0.17472-1.4629 0.22461-0.6758 0.0916-2.0997 0.75015-2.3164 1.0723-0.18662 0.2774-2.2867-0.0523-2.4121-0.37891-0.0595-0.15506 6e-3 -0.35302 0.14648-0.43945 0.21163-0.13067 0.20999-0.2891-6e-3 -0.94141-0.19785-0.59896-0.20587-0.83716-0.0351-1.0078 0.12305-0.12292 0.2246-0.72719 0.2246-1.3418 0-0.65038 0.1285-1.3727 0.3086-1.7285 0.36308-0.71738 1.2968-1.6267 2.1328-2.0762 0.34207-0.18392 0.76043-0.6636 0.98828-1.1348 0.64774-1.3394 0.51244-1.9149-0.57812-2.4707-0.91994-0.46888-1.0378-0.46594-1.7422 0.03516-0.54166 0.38534-0.61067 0.39164-1.2031 0.10938-0.52929-0.25217-0.66393-0.45955-0.86523-1.3164-0.44199-1.8813-0.76879-2.0964-1.6172-1.0645-0.48254 0.58694-0.77004 0.98668-1.9102 2.666-0.56593 0.8336-1.2824 1.2991-1.4102 0.91602-0.045-0.13501-0.39279-0.59035-0.77344-1.0117-0.68886-0.76257-0.69238-0.77334-0.66406-2.4082 0.0345-1.9888 0.32453-2.7355 1.4707-3.791 1.4756-1.3589 2.2641-1.6699 4.2363-1.6699zm70.311 5.7812c0.63941-0.09172 0.75912 0.33771 0.041 1.0117-0.27112 0.25446-0.80034 0.96848-1.1758 1.5859-0.62627 1.03-0.68003 1.2306-0.64453 2.4453 0.0304 1.0398 0.12606 1.4242 0.44531 1.791 0.45964 0.52815 0.70948 0.56496 1.6191 0.23633 0.49606-0.17921 0.77538-0.17994 1.2422-0.0039 0.44578 0.1681 0.67009 0.17225 0.86133 0.01367 0.14207-0.11779 0.31225-0.16034 0.37891-0.09375 0.0667 0.0666 0.22077 0.03751 0.34375-0.06445 0.12297-0.10196 0.82986-0.27008 1.5703-0.375 1.3967-0.19791 2.0606-0.09158 4.0527 0.65039 0.85134 0.31708 2.3937 0.25192 2.6172-0.10938 0.14405-0.23285 1.942-0.21247 2.0879 0.02344 0.065 0.10507 0.53124 0.19141 1.0352 0.19141 0.50393 0 1.1813 0.09076 1.5039 0.20312 0.37888 0.13196 0.81125 0.1437 1.2227 0.03125 0.35034-0.09576 0.7455-0.13844 0.87695-0.09375 0.75763 0.25755-0.32567 2.5829-1.7441 3.7441-1.1465 0.9386-1.3299 1.7415-0.67578 2.9727 0.39369 0.74097 0.4581 1.1196 0.45117 2.6855-0.0113 2.5614-0.25034 4.513-0.70312 5.7383-0.21355 0.57787-0.44978 1.6639-0.52344 2.4121-0.0962 0.97694-0.25491 1.5153-0.56445 1.9102-0.52039 0.66389-1.963 1.8302-2.8984 2.3438-0.80909 0.44418-1.0678 0.73159-1.7207 1.9062-0.53115 0.95562-0.99903 1.1234-2.1856 0.78516-0.31549-0.08995-0.95154-0.25766-1.4121-0.37305-0.46058-0.1154-0.99724-0.29552-1.1934-0.40039-0.19613-0.10486-1.1105-0.26556-2.0312-0.35742-0.92078-0.09184-2.7068-0.35577-3.9688-0.58594-1.262-0.23017-2.4223-0.41604-2.5801-0.41406-0.15775 2e-3 -0.45958-0.07-0.66992-0.1582-0.21033-0.08826-1.1139-0.34378-2.0078-0.56836-0.8939-0.22459-2.0045-0.629-2.4688-0.90039-0.52779-0.30852-1.2084-0.51742-1.8164-0.55664-1.954-0.12609-2.8029-0.37306-3.2793-0.95508-0.50764-0.62024-0.55801-0.88778-0.26563-1.4336 0.26295-0.49087 0.0702-1.0755-0.40625-1.2266-0.64818-0.20553-1.0794-1.2449-1.125-2.7109-4e-3 -0.12768-0.26003-0.5183-0.56836-0.86914-0.30832-0.35084-0.61714-0.89169-0.68555-1.2012-0.0685-0.30949-0.29472-1.0049-0.5039-1.5449-0.52308-1.3505-0.42036-2.1802 0.3164-2.5605 1.3444-0.69409 2.5801-1.5724 2.5801-1.832 0-0.15381-0.13683-0.54485-0.30468-0.86914-0.24763-0.47842-0.26132-0.67026-0.0742-1.0195 0.24994-0.4666 0.94421-0.85547 1.5293-0.85547 0.20188 0 0.79733-0.37991 1.3223-0.8457s1.279-0.99199 1.6777-1.168c0.39876-0.17598 1.0142-0.46031 1.3672-0.63281 0.92999-0.45453 3.4152-2.6128 3.748-3.2559 0.15648-0.3023 0.61603-0.79726 1.0234-1.0977 0.40742-0.3004 1.1776-1.0697 1.7109-1.7109 0.54468-0.65496 1.3211-1.3399 1.7715-1.5625 0.31704-0.15672 0.58764-0.24482 0.80078-0.27539zm-3.9297 8.8867c-0.47617-0.03212-0.89569 0.35061-1.3008 1.1445-0.22605 0.44302-0.77214 1.1241-1.2148 1.5137-0.69355 0.61035-0.82215 0.84231-0.92188 1.6836-0.12231 1.0318-0.51511 1.7988-1.6992 3.3086-1.1257 1.4353-0.9632 2.0843 0.57227 2.2793 1.0406 0.13214 1.3789 0.41619 1.3789 1.1582 0 0.44625-0.2172 0.81112-0.88671 1.4902-1.097 1.1127-1.0543 1.607 0.12304 1.4492 0.41696-0.05587 1.1255-0.27471 1.5742-0.48633 0.44875-0.21162 1.0301-0.38382 1.293-0.38281 0.5517 0.0021 2.1781-0.68778 2.8457-1.207 0.26609-0.20697 0.76635-0.35547 1.2012-0.35547 0.40985 0 1.0505-0.12621 1.4219-0.28125 0.3714-0.15504 1.0382-0.26541 1.4824-0.24609 1.6631 0.07231 3.2791-1.413 3.0527-2.8066-0.0767-0.47237 6e-3 -0.69991 0.39453-1.0684 0.53436-0.50667 0.61855-0.94273 0.29492-1.5469-0.23861-0.44544-1.2777-0.92774-2-0.92774-0.27302 0-0.94096-0.2017-1.4863-0.44922-0.54538-0.24751-1.3223-0.51005-1.7246-0.58398-0.88264-0.16221-1.6025-0.77561-2.7559-2.3438-0.63557-0.86413-1.1684-1.3097-1.6445-1.3418zm11.307 8.9512c-0.31743 0.03444-0.65682 0.19133-1.0234 0.4707-1.1617 0.88524-0.70282 1.612 1.252 1.9824 0.56423 0.1069 1.0673 0.23727 1.1191 0.28906 0.19043 0.19026 0.56308 0.08416 1.1973-0.3418 1.1982-0.8048 0.86363-1.8574-0.59179-1.8574-0.38046 0-0.86033-0.12504-1.0645-0.2793-0.27725-0.20951-0.57123-0.29811-0.88867-0.26367zm-4.5938 6.002c-0.19826-0.08836-0.88623 0.02043-1.707 0.26953-1.1891 0.36085-1.4811 0.38626-2.1777 0.19141-0.90571-0.25334-1.3916-0.0954-1.8926 0.61914-0.85392 1.218 0.24862 1.8869 2.4726 1.5 1.6909-0.29418 2.3997-0.25812 4.0703 0.20312 0.81309 0.22448 1.6855 0.39531 1.9375 0.38086 0.25202-0.0145 0.55252 0.053 0.66992 0.15039 0.3444 0.28556 2.9309 0.48149 3.6856 0.2793 0.60025-0.16084 0.6705-0.53366 0.27148-1.457-0.53746-1.2437-0.86151-1.4377-2.5996-1.5527-2.1792-0.14424-4.343-0.41126-4.7305-0.58398z" stroke-dasharray="17.9685, 17.9685" stroke-width="2.9948"/><g fill="#fff"><path class="st2" transform="matrix(.65237 -.18712 .18712 .65237 340.05 49.182)" d="m135.2 5.2c-21.2-8.3-97.9-11.3-98 34.5-22.4 14.3-37.2 37.6-37.2 62.6 0 30.2 24.5 54.7 54.7 54.7s54.7-24.5 54.7-54.7c0-23.3-14.6-43.3-35.2-51.1-4-1.5-12.6-4.2-19.4-3.6-9.8 6.2-21.8 19-27.4 31.8 8.4-10.1 21.5-14.5 33.2-12.6 17.1 2.8 30.837 20.052 30.2 35.6-0.69461 16.956-16.1 36-36 36-11 0-20.8-4.9-27.4-12.6-9.9-11.5-12.4-23.9-10.4-36 6.9-42.4 57.2-66.5 94.6-75.8-12.2 6.5-34.2 17.1-49.6 28.6 44.9 17.4 52.2-20.5 73.2-37.4z" mask="url(#a)"/><path class="st1" d="m285.95 110.3c0.6 5.4 2.8 9.7 6.5 12.8s8.5 4.7 14.4 4.7c3.9 0 7.4-0.8 10.5-2.4 3.1-1.7 5.6-3.9 7.4-6.9h18.8c-3.2 8.2-7.9 14.5-14.3 19.1-6.3 4.5-13.7 6.8-22 6.8-5.6 0-10.7-1-15.4-3s-8.9-4.9-12.7-8.8c-3.5-3.7-6.3-7.9-8.2-12.8-2-4.8-2.9-9.8-2.9-14.9 0-5.2 0.9-10.2 2.7-14.8s4.4-8.8 7.9-12.5c3.8-4.1 8.2-7.2 13-9.3 4.8-2.2 9.8-3.3 14.9-3.3 6.5 0 12.6 1.5 18.2 4.4 5.6 3 10.4 7.1 14.4 12.5 2.4 3.2 4.2 6.8 5.4 10.9 1.2 4 1.7 8.6 1.7 13.8 0 0.4 0 1-0.1 1.9 0 0.9-0.1 1.5-0.1 1.9h-60.1zm41.4-13.9c-1.5-5-4-8.8-7.5-11.4s-8-3.9-13.3-3.9c-4.7 0-8.8 1.4-12.5 4.2s-6.2 6.5-7.5 11.1zm88.2 45.9v-9.2c-2.1 3.7-5 6.5-8.8 8.3s-8.7 2.7-14.6 2.7c-11.1 0-20.4-3.8-27.8-11.4s-11.2-17-11.2-28.2c0-5.3 0.9-10.3 2.8-15s4.5-8.9 8-12.5c3.7-4 7.9-6.9 12.4-8.8s9.7-2.8 15.4-2.8c5.5 0 10.2 0.9 14.1 2.7s7.1 4.6 9.5 8.3v-9.1h17v75.1h-16.8zm-44.5-38.2c0 6.3 2.1 11.6 6.3 15.9s9.3 6.4 15.4 6.4c5.5 0 10.3-2.1 14.5-6.4s6.3-9.3 6.3-15c0-6.1-2.1-11.3-6.3-15.7s-9.1-6.6-14.8-6.6c-5.9 0-10.9 2.1-15.1 6.2-4.2 4.2-6.3 9.2-6.3 15.2zm107.9-36.9v15.6h-12.6v59.5h-16.9v-59.5h-8.9v-15.6h8.4v-2c0-7.9 2.2-13.8 6.5-17.7 4.4-3.9 11-5.8 19.9-5.8 0.3 0 0.9 0 1.7 0.1 0.8 0 1.4 0.1 1.9 0.1v15.7h-1.2c-4 0-6.8 0.7-8.5 1.9-1.7 1.3-2.6 3.4-2.6 6.5v1.4h12.3zm-234.8 75.1h17.1v-99.4h-17.1z"/></g></g></svg>
